<?xml version="1.0" encoding="UTF-8"?>
<svg width="50px" height="81px" viewBox="0 0 50 81" version="1.1" xmlns="http://www.w3.org/2000/svg" xmlns:xlink="http://www.w3.org/1999/xlink">
    <!-- Generator: Sketch 52.5 (67469) - http://www.bohemiancoding.com/sketch -->
    <title>odds-table-logo</title>
    <desc>Created with Sketch.</desc>
    <defs>
        <polygon id="path-1" points="0 0 18.6547255 0 18.6547255 17.9999217 0 17.9999217"></polygon>
    </defs>
    <g id="odds-table-logo" stroke="none" stroke-width="1" fill="none" fill-rule="evenodd">
        <g id="Group-6" transform="translate(24.500000, 41.000000) rotate(-90.000000) translate(-24.500000, -41.000000) translate(-4.000000, 32.000000)">
            <g id="Group-3">
                <mask id="mask-2" fill="white">
                    <use xlink:href="#path-1"></use>
                </mask>
                <g id="Clip-2"></g>
                <path d="M6.62085319,6.96513913 L6.62085319,6.00018261 L2.55687447,6.00018261 C2.1756617,6.00018261 1.86559787,6.30109565 1.86559787,6.67166087 L1.86559787,7.34705217 L3.47372553,7.34705217 L3.47372553,11.9996609 L4.32791702,11.9996609 C4.70347021,11.9996609 5.00787447,11.7061826 5.01312979,11.3426609 L5.01312979,7.34705217 L6.30391702,7.34705217 C6.48098085,7.33413913 6.62085319,7.19209565 6.62085319,7.0167913 L6.62085319,6.96513913 Z M9.3079383,8.50844348 L9.63861915,9.68861739 L8.40321489,9.68861739 L9.02536383,7.49926957 L9.3079383,8.50844348 Z M9.02819362,6.00057391 L8.96795957,6.00057391 L8.05555532,6.00057391 L6.17334255,12.0000522 L7.51910851,12.0000522 C7.66585319,12.0000522 7.79036383,11.9100522 7.83927872,11.7836609 L7.85585319,11.7245739 L8.10083191,10.8648783 L9.95838511,10.8648783 L10.2817894,12.0000522 L11.8854702,12.0000522 L10.2745128,6.88844348 C10.1075553,6.37387826 9.61315106,6.00057391 9.02819362,6.00057391 Z M15.3879383,10.4168348 C15.3879383,10.7725304 15.1664064,10.9118348 14.5988319,10.9118348 L13.7494915,10.9118348 L13.7494915,9.51487826 L14.8248106,9.51487826 C15.1983426,9.51487826 15.3879383,9.67453043 15.3879383,9.98874783 L15.3879383,10.4168348 Z M15.1660021,8.07722609 C15.1660021,8.31826957 14.9727681,8.45718261 14.6352149,8.45718261 L13.7494915,8.45718261 L13.7494915,7.09113913 L14.6352149,7.09113913 C15.1106191,7.09113913 15.1660021,7.30753043 15.1660021,7.47070435 L15.1660021,8.07722609 Z M12.3119596,6.00057391 L12.3119596,12.0000522 L14.9590234,12.0000522 C16.122066,12.0000522 16.7890872,11.4604435 16.7890872,10.5193565 L16.7890872,9.95157391 C16.7890872,9.4730087 16.4980234,9.05118261 16.0581936,8.86061739 C16.4082787,8.6547913 16.5736191,8.36483478 16.5736191,7.9617913 L16.5736191,7.3677913 C16.5736191,6.44744348 15.9838106,6.00057391 14.7706404,6.00057391 L12.3119596,6.00057391 Z M2.42508723,4.19705217 L3.10908723,4.02018261 L18.6547255,-7.82608696e-05 L18.6547255,12.0055304 C18.6547255,12.6523565 18.1114064,13.3160087 17.4419596,13.4893565 L16.7409809,13.6709217 L-4.04255319e-05,17.9999217 L-4.04255319e-05,7.16470435 C-4.04255319e-05,5.87222609 1.08538511,4.54335652 2.42508723,4.19705217 Z" id="Fill-1" fill="#FFFFFF" mask="url(#mask-2)"></path>
            </g>
            <path d="M57,5.99298261 L56.1615745,5.99298261 L56.1615745,11.8543304 L55.2491702,11.8543304 L55.2491702,5.99298261 L54.3792128,5.99298261 L54.3792128,5.13563478 L57,5.13563478 L57,5.99298261 Z M53.9915319,11.8543304 L53.2679149,11.8543304 L52.2823404,8.63624348 L51.9993617,7.63763478 L51.9993617,11.8543304 L51.1710426,11.8543304 L51.1710426,5.13563478 L52.0308936,5.13563478 L52.911766,8.36389565 L53.1733191,9.37267826 L53.1733191,5.13563478 L53.9915319,5.13563478 L53.9915319,11.8543304 Z M50.940617,4.50015652 L49.0850851,12.4999826 L48.5712766,12.4999826 L50.4268085,4.50015652 L50.940617,4.50015652 Z M48.5082128,10.4824174 C48.5082128,11.5416783 47.8375532,11.955287 47.1664894,11.955287 C46.3381702,11.955287 45.8352766,11.4305478 45.8352766,10.5829826 L45.8352766,9.85672174 L46.6737021,9.85672174 L46.6737021,10.6135043 C46.6737021,10.9664609 46.8313617,11.1785478 47.1353617,11.1785478 C47.4599787,11.1785478 47.617234,10.9766348 47.617234,10.6440261 C47.617234,10.0183304 47.3657872,9.51393913 46.8835106,8.82798261 C46.4323617,8.21246087 45.8769149,7.30463478 45.8769149,6.52789565 C45.8769149,5.68033043 46.3070426,5.03467826 47.2190426,5.03467826 C47.9737872,5.03467826 48.4665745,5.55941739 48.4665745,6.4065913 L48.4665745,7.17354783 L47.6382553,7.17354783 L47.6382553,6.37646087 C47.6382553,6.04346087 47.4915106,5.84154783 47.2190426,5.84154783 C46.9566809,5.84154783 46.7678936,6.01333043 46.7678936,6.32598261 C46.7678936,7.0725913 47.0302553,7.42554783 47.5545745,8.19250435 C48.089,8.94889565 48.5082128,9.70528696 48.5082128,10.4824174 Z M44.4515106,9.7358087 L44.1786383,6.85033043 L43.8431064,9.7358087 L44.4515106,9.7358087 Z M45.6149574,11.8543304 L44.6714255,11.8543304 L44.5457021,10.5528522 L43.7384043,10.5528522 L43.5811489,11.8543304 L42.7423191,11.8543304 L43.6753404,5.13563478 L44.6819362,5.13563478 L45.6149574,11.8543304 Z M42.6165957,5.99298261 L41.7781702,5.99298261 L41.7781702,11.8543304 L40.8661702,11.8543304 L40.8661702,5.99298261 L39.9958085,5.99298261 L39.9958085,5.13563478 L42.6165957,5.13563478 L42.6165957,5.99298261 Z M40.0063191,4.50015652 L38.1507872,12.4999826 L37.637383,12.4999826 L39.4925106,4.50015652 L40.0063191,4.50015652 Z M36.5467021,9.7358087 L36.274234,6.85033043 L35.9387021,9.7358087 L36.5467021,9.7358087 Z M37.7105532,11.8543304 L36.7670213,11.8543304 L36.6412979,10.5528522 L35.834,10.5528522 L35.6767447,11.8543304 L34.8379149,11.8543304 L35.7709362,5.13563478 L36.7775319,5.13563478 L37.7105532,11.8543304 Z M34.618,10.4824174 C34.618,11.5416783 33.9469362,11.955287 33.2758723,11.955287 C32.4479574,11.955287 31.9446596,11.4305478 31.9446596,10.5829826 L31.9446596,9.85672174 L32.7834894,9.85672174 L32.7834894,10.6135043 C32.7834894,10.9664609 32.9403404,11.1785478 33.2443404,11.1785478 C33.5693617,11.1785478 33.7270213,10.9766348 33.7270213,10.6440261 C33.7270213,10.0183304 33.4751702,9.51393913 32.9928936,8.82798261 C32.5421489,8.21246087 31.9862979,7.30463478 31.9862979,6.52789565 C31.9862979,5.68033043 32.4160213,5.03467826 33.3284255,5.03467826 C34.0831702,5.03467826 34.5759574,5.55941739 34.5759574,6.4065913 L34.5759574,7.17354783 L33.7476383,7.17354783 L33.7476383,6.37646087 C33.7476383,6.04346087 33.6008936,5.84154783 33.3284255,5.84154783 C33.0664681,5.84154783 32.8776809,6.01333043 32.8776809,6.32598261 C32.8776809,7.0725913 33.1400426,7.42554783 33.6635532,8.19250435 C34.1987872,8.94889565 34.618,9.70528696 34.618,10.4824174 Z M31.8500638,4.50015652 L29.9945319,12.4999826 L29.4811277,12.4999826 L31.3366596,4.50015652 L31.8500638,4.50015652 Z M28.4009574,10.4925913 L28.4009574,6.50754783 C28.4009574,6.14441739 28.2857447,5.97302609 27.9922553,5.97302609 L27.5835532,5.97302609 L27.5835532,11.027113 L27.9922553,11.027113 C28.2857447,11.027113 28.4009574,10.8557217 28.4009574,10.4925913 Z M29.3234681,10.4722435 C29.3234681,11.4203739 28.8306809,11.8543304 28.0448085,11.8543304 L26.6610426,11.8543304 L26.6610426,5.13563478 L28.0448085,5.13563478 C28.8306809,5.13563478 29.3234681,5.59972174 29.3234681,6.53806957 L29.3234681,10.4722435 Z M26.2309149,11.8543304 L24.0503617,11.8543304 L24.0503617,5.13563478 L24.962766,5.13563478 L24.962766,11.0169391 L26.2309149,11.0169391 L26.2309149,11.8543304 Z M22.4988298,10.4018087 L22.4988298,6.30563478 C22.4988298,6.07398261 22.3520851,5.89202609 22.079617,5.89202609 C21.8071489,5.89202609 21.6604043,6.07398261 21.6604043,6.30563478 L21.6604043,10.6839391 C21.6604043,10.9159826 21.8071489,11.0979391 22.079617,11.0979391 C22.1742128,11.0979391 22.2684043,11.0877652 22.3310638,11.027113 L22.1006383,10.8150261 L22.4988298,10.4018087 Z M23.7253404,11.8543304 C23.6206383,11.9247652 23.5054255,11.955287 23.3061277,11.955287 C23.0963191,11.955287 22.9079362,11.874287 22.8028298,11.7537652 C22.5934255,11.8848522 22.3520851,11.955287 22.0585957,11.955287 C21.2933404,11.955287 20.727383,11.3902435 20.727383,10.5935478 L20.727383,6.39641739 C20.727383,5.60989565 21.2933404,5.03467826 22.079617,5.03467826 C22.8658936,5.03467826 23.4318511,5.60989565 23.4318511,6.39641739 L23.4318511,10.5935478 C23.4318511,10.8150261 23.3902128,11.0169391 23.3061277,11.1683739 C23.3792979,11.2493739 23.5054255,11.289287 23.7253404,11.289287 L23.7253404,11.8543304 Z" id="Fill-4" fill="#FFFFFF"></path>
        </g>
    </g>
</svg>