<?xml version="1.0" encoding="UTF-8"?>
<svg width="50px" height="81px" viewBox="0 0 50 81" version="1.1" xmlns="http://www.w3.org/2000/svg" xmlns:xlink="http://www.w3.org/1999/xlink">
    <!-- Generator: Sketch 55.2 (78181) - https://sketchapp.com -->
    <title>odds-table-logo</title>
    <desc>Created with Sketch.</desc>
    <defs>
        <polygon id="path-1" points="0.0561145194 0.0504102857 5.16899796 0.0504102857 5.16899796 5.24571429 0.0561145194 5.24571429"></polygon>
        <polygon id="path-3" points="0.0916973415 0.0504102857 5.20437628 0.0504102857 5.20437628 5.24571429 0.0916973415 5.24571429"></polygon>
        <polygon id="path-5" points="0.0570654397 0.0504102857 5.17015337 0.0504102857 5.17015337 5.24571429 0.0570654397 5.24571429"></polygon>
        <polygon id="path-7" points="0.0903885481 0.0504102857 5.20357873 0.0504102857 5.20357873 5.24571429 0.0903885481 5.24571429"></polygon>
        <polygon id="path-9" points="0.0753169734 0.0630514286 8.12429448 0.0630514286 8.12429448 10.0417269 0.0753169734 10.0417269"></polygon>
        <polygon id="path-11" points="0.046605317 0.0630514286 2.71092033 0.0630514286 2.71092033 10.0345166 0.046605317 10.0345166"></polygon>
        <polygon id="path-13" points="0.0524744376 0.0630514286 8.12854806 0.0630514286 8.12854806 10.0345063 0.0524744376 10.0345063"></polygon>
    </defs>
    <g id="odds-table-logo" stroke="none" stroke-width="1" fill="none" fill-rule="evenodd">
        <rect fill="#111111" x="0" y="0" width="50" height="81"></rect>
        <g id="Group-32" transform="translate(25.000000, 41.000000) rotate(-90.000000) translate(-25.000000, -41.000000) translate(0.000000, 32.000000)">
            <g id="Group-3" opacity="0.95" transform="translate(30.265849, 12.691234)">
                <mask id="mask-2" fill="white">
                    <use xlink:href="#path-1"></use>
                </mask>
                <g id="Clip-2"></g>
                <path d="M2.61276074,0.0504102857 C1.20079755,0.0504102857 0.0561145194,1.213416 0.0561145194,2.64806743 C0.0561145194,4.08292457 1.20079755,5.24572457 2.61276074,5.24572457 C4.02431493,5.24572457 5.16899796,4.08292457 5.16899796,2.64806743 C5.16899796,1.213416 4.02431493,0.0504102857 2.61276074,0.0504102857" id="Fill-1" fill="#3AAA35" mask="url(#mask-2)"></path>
            </g>
            <path d="M38.1609305,12.7415931 C36.7490695,12.7415931 35.6043865,13.9045989 35.6043865,15.3392503 C35.6043865,16.7741074 36.7490695,17.9369074 38.1609305,17.9369074 C39.5727914,17.9369074 40.7175767,16.7741074 40.7175767,15.3392503 C40.7175767,13.9045989 39.5727914,12.7415931 38.1609305,12.7415931" id="Fill-4" fill="#3AAA35"></path>
            <g id="Group-8" transform="translate(9.100204, 12.691234)">
                <mask id="mask-4" fill="white">
                    <use xlink:href="#path-3"></use>
                </mask>
                <g id="Clip-7"></g>
                <path d="M2.64783231,0.0504102857 C1.23617587,0.0504102857 0.0916973415,1.213416 0.0916973415,2.64806743 C0.0916973415,4.08292457 1.23617587,5.24572457 2.64783231,5.24572457 C4.0597955,5.24572457 5.20437628,4.08292457 5.20437628,2.64806743 C5.20437628,1.213416 4.0597955,0.0504102857 2.64783231,0.0504102857" id="Fill-6" fill-opacity="0.55" fill="#3AAA35" mask="url(#mask-4)"></path>
            </g>
            <g id="Group-11" transform="translate(14.417178, 12.691234)">
                <mask id="mask-6" fill="white">
                    <use xlink:href="#path-5"></use>
                </mask>
                <g id="Clip-10"></g>
                <path d="M2.61350716,0.0504102857 C1.20154397,0.0504102857 0.0570654397,1.21331314 0.0570654397,2.64786171 C0.0570654397,4.08271886 1.20154397,5.24572457 2.61350716,5.24572457 C4.0253681,5.24572457 5.17015337,4.08271886 5.17015337,2.64786171 C5.17015337,1.21331314 4.0253681,0.0504102857 2.61350716,0.0504102857" id="Fill-9" fill-opacity="0.65" fill="#3AAA35" mask="url(#mask-6)"></path>
            </g>
            <g id="Group-14" transform="translate(24.948875, 12.691234)">
                <mask id="mask-8" fill="white">
                    <use xlink:href="#path-7"></use>
                </mask>
                <g id="Clip-13"></g>
                <path d="M2.64713701,0.0504102857 C1.23517382,0.0504102857 0.0903885481,1.213416 0.0903885481,2.64786171 C0.0903885481,4.08271886 1.23517382,5.24572457 2.64713701,5.24572457 C4.05899796,5.24572457 5.20357873,4.08271886 5.20357873,2.64786171 C5.20357873,1.213416 4.05899796,0.0504102857 2.64713701,0.0504102857" id="Fill-12" fill-opacity="0.85" fill="#3AAA35" mask="url(#mask-8)"></path>
            </g>
            <path d="M22.3058691,12.7417989 C20.8937014,12.7417989 19.7492229,13.9047017 19.7492229,15.3392503 C19.7492229,16.7743131 20.8937014,17.9369074 22.3058691,17.9369074 C23.7174233,17.9369074 24.8622086,16.7743131 24.8622086,15.3392503 C24.8622086,13.9047017 23.7174233,12.7417989 22.3058691,12.7417989" id="Fill-15" fill-opacity="0.75" fill="#3AAA35"></path>
            <path d="M40.6502965,7.81931314 L36.209499,7.81499314 L36.2100102,6.08545029 L38.5852658,6.08812457 L38.5855726,6.08812457 C38.6377198,6.08812457 38.6879243,6.06724457 38.7248364,6.03011314 C38.7618507,5.99308457 38.7827096,5.94258171 38.7827096,5.88991886 L38.7838344,4.025736 C38.7839366,3.91639886 38.6956953,3.82753029 38.5869018,3.82732457 L36.2129755,3.82444457 L36.2137935,2.36767886 L40.3881288,2.37066171 L40.3883333,2.37066171 C40.4971268,2.37066171 40.5853681,2.28210171 40.5854703,2.17266171 L40.5880266,0.308890286 C40.5881288,0.256227429 40.5673722,0.205827429 40.5304601,0.168696 C40.4934458,0.131358857 40.4433436,0.110478857 40.3910941,0.110376 L33.752546,0.103998857 L33.7523415,0.103998857 C33.700092,0.103998857 33.6499898,0.124776 33.6130777,0.162010286 C33.5760634,0.199038857 33.5552045,0.249438857 33.5552045,0.302101714 L33.5473312,9.87666171 C33.547229,9.98620457 33.6353681,10.0750731 33.7442638,10.075176 L40.6486605,10.0815531 L40.648865,10.0815531 C40.7011145,10.0815531 40.7512168,10.0606731 40.7881288,10.0235417 C40.8250409,9.98630743 40.846002,9.93601029 40.846002,9.88324457 L40.8472291,8.01772457 C40.8473313,7.90828457 40.7591922,7.81931314 40.6502965,7.81931314" id="Fill-17" fill="#FFFFFF"></path>
            <g id="Group-21" transform="translate(9.611452, 0.039806)">
                <mask id="mask-10" fill="white">
                    <use xlink:href="#path-9"></use>
                </mask>
                <g id="Clip-20"></g>
                <path d="M7.92725971,0.0641725714 L5.69269939,0.0630411429 L5.69269939,0.0630411429 C5.6404499,0.0630411429 5.5902454,0.084024 5.55323108,0.121052571 C5.51631902,0.158286857 5.49556237,0.208686857 5.49556237,0.261349714 L5.49423313,5.25691543 L3.32337423,0.184104 C3.29229039,0.111281143 3.22102249,0.0641725714 3.14229039,0.0641725714 L0.272862986,0.0641725714 C0.16406953,0.0641725714 0.0757259714,0.152938286 0.0757259714,0.262481143 L0.0753169734,9.84228686 C0.0753169734,9.95182971 0.163456033,10.0405954 0.272351738,10.0405954 L2.53789366,10.0414183 L2.53799591,10.0414183 C2.5902454,10.0414183 2.6404499,10.0204354 2.67736196,9.983304 C2.71437628,9.94617257 2.73513292,9.89566971 2.73513292,9.84310971 L2.73574642,4.17989829 L5.23605317,9.92128114 C5.26744376,9.993384 5.33830266,10.0399783 5.41662577,10.0400811 L7.92695297,10.0417269 L7.92705521,10.0417269 C7.9793047,10.0417269 8.0295092,10.020744 8.06642127,9.98371543 C8.10343558,9.94648114 8.12419223,9.89597829 8.12419223,9.84341829 L8.12429448,0.262481143 C8.12429448,0.152938286 8.03615542,0.0642754286 7.92725971,0.0641725714" id="Fill-19" fill="#FFFFFF" mask="url(#mask-10)"></path>
            </g>
            <path d="M7.75154397,0.10368 L5.23395706,0.102857143 C5.20900818,0.102857143 5.18457055,0.11304 5.16688139,0.130834286 C5.14898773,0.148731429 5.13917178,0.172594286 5.13917178,0.198 L5.13917178,6.34865143 C5.13917178,7.02318857 4.59367076,7.57193143 3.92311861,7.57193143 C3.25256646,7.57193143 2.70706544,7.02318857 2.70706544,6.34865143 L2.70706544,1.30268571 L2.70706544,1.30278857 L2.70696319,0.942685714 L2.70706544,0.19872 C2.70706544,0.146365714 2.6646319,0.10368 2.61238241,0.10368 L0.0948977505,0.102857143 C0.0695398773,0.102857143 0.0456134969,0.112731429 0.0277198364,0.130834286 C0.00982617587,0.148731429 1.02249489e-05,0.172594286 1.02249489e-05,0.198 L1.02249489e-05,6.34865143 C1.02249489e-05,8.5248 1.75992843,10.2950743 3.92311861,10.2950743 C6.08630879,10.2950743 7.84622699,8.5248 7.84622699,6.34865143 L7.84622699,0.942582857 L7.84612474,0.942685714 L7.84622699,0.19872 C7.84622699,0.146365714 7.80369121,0.10368 7.75154397,0.10368" id="Fill-22" fill="#FFFFFF"></path>
            <g id="Group-26" transform="translate(19.529652, 0.039806)">
                <mask id="mask-12" fill="white">
                    <use xlink:href="#path-11"></use>
                </mask>
                <g id="Clip-25"></g>
                <path d="M2.71092033,0.265762286 C2.71102249,0.156219429 2.62278119,0.0674537143 2.51398773,0.0673508571 L0.245276074,0.0630308571 L0.245071575,0.0630308571 C0.136380368,0.0630308571 0.0480368098,0.151796571 0.0479345603,0.261236571 L0.046605317,9.83250514 C0.046605317,9.885168 0.0673619632,9.93567086 0.104274029,9.97290514 C0.141186094,10.0101394 0.191288344,10.0310194 0.243640082,10.0310194 L2.51276074,10.0345166 L2.51286299,10.0345166 C2.56511247,10.0345166 2.61511247,10.0136366 2.65212679,9.97650514 C2.6891411,9.93937371 2.70989775,9.88887086 2.70989775,9.83631086 L2.71092033,0.265762286 Z" id="Fill-24" fill="#FFFFFF" mask="url(#mask-12)"></path>
            </g>
            <g id="Group-29" transform="translate(24.028630, 0.039806)">
                <mask id="mask-14" fill="white">
                    <use xlink:href="#path-13"></use>
                </mask>
                <g id="Clip-28"></g>
                <path d="M4.61443763,7.65696343 C4.61300613,7.65696343 4.61167689,7.65675771 4.61034765,7.65675771 L2.65738241,7.65675771 L2.65738241,5.57595771 L4.61443763,5.57595771 C5.18570552,5.57595771 5.64879346,6.04179771 5.64879346,6.61646057 C5.64879346,7.19112343 5.18570552,7.65696343 4.61443763,7.65696343 L4.61443763,7.65696343 Z M2.65738241,2.05916914 L4.64316973,2.05916914 C5.03386503,2.05916914 5.35063395,2.37771771 5.35063395,2.77083771 C5.35063395,3.16385486 5.03386503,3.48250629 4.64316973,3.48250629 L2.65738241,3.48250629 L2.65738241,2.05916914 Z M6.9705726,4.63923771 C7.48386503,4.15642629 7.80656442,3.471192 7.80656442,2.70850629 C7.80656442,1.24752343 6.6292638,0.0630205714 5.17680982,0.0630205714 C5.15748466,0.0630205714 5.13877301,0.065592 5.1195501,0.0660034286 L3.88683027,0.0630205714 L3.88683027,0.0654891429 L0.254314928,0.064152 L0.254110429,0.064152 C0.145316973,0.064152 0.0570756646,0.152814857 0.0569734151,0.262357714 L0.0524744376,9.835272 C0.0524744376,9.887832 0.0731288344,9.938232 0.1100409,9.97556914 C0.147055215,10.0127006 0.197259714,10.0336834 0.249611452,10.0336834 L3.88683027,10.0344034 L3.88683027,10.0345063 L4.53672802,10.0345063 L4.539591,10.0345063 L5.12916155,10.0345063 C6.78560327,10.0345063 8.12854806,8.68368343 8.12854806,7.01739771 C8.12854806,6.05012914 7.67425358,5.19137486 6.9705726,4.63923771 L6.9705726,4.63923771 Z" id="Fill-27" fill="#FFFFFF" mask="url(#mask-14)"></path>
            </g>
            <path d="M49.8520041,0.176194286 C49.8149898,0.139062857 49.7649898,0.117977143 49.712638,0.117874286 L42.269182,0.103988571 L42.2688753,0.103988571 C42.160184,0.103988571 42.0719427,0.192548571 42.0717382,0.301885714 L42.0685682,2.14858286 C42.068364,2.25822857 42.1565031,2.34709714 42.2652965,2.34730286 L44.6017996,2.35213714 L44.5894274,9.87696 C44.5893252,9.92952 44.6100818,9.97992 44.6469939,10.0171543 C44.6839059,10.0544914 44.7340082,10.0753714 44.7863599,10.0754743 L47.1406544,10.07856 L47.1409611,10.07856 C47.2497546,10.07856 47.3378937,9.99 47.3380982,9.88056 L47.3498569,2.35594286 L49.7087526,2.36067429 L49.7090593,2.36067429 C49.8177505,2.36067429 49.9059918,2.27201143 49.9061963,2.16267429 L49.9094687,0.316594286 C49.9095706,0.263931429 49.8889162,0.213428571 49.8520041,0.176194286" id="Fill-30" fill="#FFFFFF"></path>
        </g>
    </g>
</svg>