<?xml version="1.0" encoding="UTF-8"?>
<svg width="50px" height="81px" viewBox="0 0 50 81" version="1.1" xmlns="http://www.w3.org/2000/svg" xmlns:xlink="http://www.w3.org/1999/xlink">
    <!-- Generator: Sketch 46.1 (44463) - http://www.bohemiancoding.com/sketch -->
    <title>bookieheader/bet365</title>
    <desc>Created with Sketch.</desc>
    <defs>
        <polygon id="path-1" points="0 0.445830476 0 13.7179352 10.7772805 13.7179352 10.7772805 0.445830476 2.45881564e-20 0.445830476"></polygon>
    </defs>
    <g id="Symbols" stroke="none" stroke-width="1" fill="none" fill-rule="evenodd">
        <g id="bookieheader/bet365">
            <g id="Group-5" fill="#007356">
                <rect id="Rectangle" x="0" y="0" width="50" height="81"></rect>
            </g>
            <g id="bet365-light" transform="translate(24.500000, 40.500000) rotate(-90.000000) translate(-24.500000, -40.500000) translate(-7.000000, 33.000000)">
                <path d="M34.5623243,11.3166071 C35.731329,11.3166071 36.3415338,10.930769 36.3415338,10.1240167 C36.3415338,9.33480238 35.7125814,8.89695476 34.4921719,8.89695476 C34.03981,8.89695476 33.4985481,8.93203095 32.9052767,9.02032619 L32.9052767,6.35514048 C33.3933195,6.40715 33.8474957,6.4246881 34.3010671,6.4246881 C35.5565529,6.4246881 36.183691,6.05699286 36.183691,5.21576905 C36.183691,4.39208333 35.6097719,4.00624524 34.423229,4.00624524 C33.6551814,4.00624524 32.678491,4.21609762 31.4756195,4.58500238 L31.4756195,1.8145881 C32.5393957,1.4462881 33.8299576,1.27090714 35.3473052,1.27090714 C38.6432576,1.27090714 40.5434195,2.6908881 40.5434195,4.91822619 C40.5434195,6.28559286 39.6544195,7.28405476 38.1026005,7.61727857 C39.828591,7.96804048 40.7181957,8.93203095 40.7181957,10.4046262 C40.7181957,12.7196548 38.7823529,14.0682738 35.0854433,14.0682738 C33.8474957,14.0682738 32.6270862,13.8941024 31.3716005,13.5959548 L31.3716005,10.73785 C32.6095481,11.1067548 33.6551814,11.3166071 34.5623243,11.3166071" id="Fill-1" fill="#FFE318"></path>
                <path d="M48.6869619,9.68665286 C48.6869619,8.66944333 48.1124381,8.01992905 47.2748429,8.01992905 C46.4378524,8.01992905 45.8796571,8.65130048 45.8796571,9.68665286 C45.8796571,10.7026529 46.4378524,11.3334195 47.2748429,11.3334195 C48.1293714,11.3334195 48.6869619,10.7026529 48.6869619,9.68665286 M48.3204762,5.82887667 C50.9197429,5.82887667 52.6457333,7.42484333 52.6457333,9.77373857 C52.6457333,12.2980148 50.6760238,14.0512195 47.5711762,14.0512195 C43.9093429,14.0512195 41.5544,11.7549386 41.5544,7.98606238 C41.5544,3.68983381 44.0490429,1.27139095 48.5478667,1.27139095 C49.507019,1.27139095 50.5363238,1.37601476 51.5988905,1.60340524 L51.5988905,4.39196238 C50.6228048,4.09381476 49.6817952,3.95351 48.6869619,3.95351 C46.6991095,3.95351 45.7750333,4.75905286 45.7230238,6.58361952 C46.4553905,6.02179571 47.2579095,5.82887667 48.3204762,5.82887667" id="Fill-3" fill="#FFE318"></path>
                <path d="M53.936779,1.58623 L62.4294505,1.58623 L62.4294505,4.49694905 L57.9130886,4.49694905 L57.9130886,6.33784429 C58.2789695,6.31970143 58.5232933,6.3027681 58.6097743,6.3027681 C61.4182886,6.3027681 62.9344267,7.72214429 62.9344267,10.1242586 C62.9344267,12.5959205 61.0862743,14.0685157 57.4764505,14.0685157 C56.2215695,14.0685157 54.9824124,13.8768062 53.7275314,13.5605157 L53.7275314,10.7901014 C54.686079,11.0537776 55.5236743,11.1765443 56.2385029,11.1765443 C57.7032362,11.1765443 58.4700743,10.6854776 58.4700743,9.77349667 C58.4700743,8.75628714 57.6687648,8.24828714 56.0292552,8.24828714 C55.3307552,8.24828714 54.6516076,8.37044905 53.936779,8.54643476 L53.936779,1.58623 Z" id="Fill-5" fill="#FFE318"></path>
                <g id="Group-9" transform="translate(0.000000, 0.158992)">
                    <mask id="mask-2" fill="white">
                        <use xlink:href="#path-1"></use>
                    </mask>
                    <g id="Clip-8"></g>
                    <path d="M4.16783762,8.98325429 C4.16783762,10.3161495 4.46417095,10.965059 5.23161381,10.965059 C5.98151857,10.965059 6.3129281,10.3161495 6.3129281,8.98325429 C6.3129281,7.65156857 5.99905667,7.00265905 5.23161381,7.00265905 C4.46417095,7.00265905 4.16783762,7.65156857 4.16783762,8.98325429 L4.16783762,8.98325429 Z M-0.000181428571,0.445830476 L4.28999952,0.445830476 L4.28999952,5.51252571 C4.90020429,4.68823524 5.73779952,4.30239714 6.87112333,4.30239714 C9.36516143,4.30239714 10.7772805,6.01992095 10.7772805,9.07094476 C10.7772805,11.9816638 9.34701857,13.7179352 6.97574714,13.7179352 C5.52794714,13.7179352 4.55125667,13.1917924 3.99366619,12.069959 L3.99366619,13.5945638 L-0.000181428571,13.5945638 L-0.000181428571,0.445830476 Z" id="Fill-7" fill="#FFFFFF" mask="url(#mask-2)"></path>
                </g>
                <path d="M18.0137405,8.37069095 L18.0137405,8.09129095 C18.0137405,7.05593857 17.6297167,6.4602481 16.8979548,6.4602481 C16.1474452,6.4602481 15.7640262,7.05593857 15.7640262,8.10822429 L15.7640262,8.37069095 L18.0137405,8.37069095 Z M21.7451214,10.1420386 L15.7991024,10.1420386 C15.9037262,11.1411052 16.671169,11.6146338 18.1183643,11.6146338 C19.1295262,11.6146338 20.176369,11.4217148 21.1869262,11.0358767 L21.1869262,13.3678386 C20.1933024,13.77061 18.8331929,13.9986052 17.2462976,13.9986052 C13.5844643,13.9986052 11.61415,12.2460052 11.61415,9.16051 C11.61415,6.14516714 13.5493881,4.3393481 16.7757929,4.3393481 C20.3505405,4.3393481 21.7451214,6.00486238 21.7451214,9.5463481 L21.7451214,10.1420386 Z" id="Fill-10" fill="#FFFFFF"></path>
                <path d="M28.0578076,4.5847 L30.0462648,4.5847 L30.0462648,7.26681905 L28.0578076,7.26681905 L28.0578076,9.45847619 C28.0578076,10.5803095 28.2331886,11.1064524 29.0871124,11.1064524 C29.3145029,11.1064524 29.6271648,11.0713762 29.9930457,10.983081 L29.9930457,13.6131905 C29.070179,13.8938 28.1454981,13.9990286 27.1694124,13.9990286 C25.9659362,13.9990286 25.0412552,13.6131905 24.5005981,12.9467429 C23.8033076,12.0698381 23.7857695,10.9661476 23.7857695,9.49415714 L23.7857695,7.26681905 L22.2684219,7.26681905 L22.2684219,4.5847 L23.7857695,4.5847 L23.7857695,2.55088571 L28.0578076,1.20045238 L28.0578076,4.5847 Z" id="Fill-12" fill="#FFFFFF"></path>
            </g>
        </g>
    </g>
</svg>