<?xml version="1.0" encoding="UTF-8"?>
<svg width="50px" height="81px" viewBox="0 0 50 81" version="1.1" xmlns="http://www.w3.org/2000/svg" xmlns:xlink="http://www.w3.org/1999/xlink">
    <!-- Generator: Sketch 49.1 (51147) - http://www.bohemiancoding.com/sketch -->
    <title>odds-table-logo-back</title>
    <desc>Created with Sketch.</desc>
    <defs>
        <polygon id="path-1" points="0.0055026455 0.0763719512 12.1030688 0.0763719512 12.1030688 8.94932927 0.0055026455 8.94932927"></polygon>
    </defs>
    <g id="odds-table-logo-back" stroke="none" stroke-width="1" fill="none" fill-rule="evenodd">
        <g fill-rule="nonzero">
            <g id="Group-5" fill="#FFB70C">
                <rect id="Rectangle" x="0" y="0" width="50" height="81"></rect>
            </g>
            <rect id="Rectangle-Copy" fill="#000000" x="0" y="0" width="50" height="16"></rect>
            <path d="M13.8430968,12 L13.8430968,4.1796875 L16.5232725,4.1796875 C17.4077171,4.1796875 18.0808874,4.35693182 18.5428038,4.71142578 C19.0047202,5.06591974 19.2356749,5.59407201 19.2356749,6.29589844 C19.2356749,6.65397314 19.1389962,6.97623555 18.9456358,7.26269531 C18.7522755,7.54915508 18.4694007,7.77115807 18.097003,7.92871094 C18.5195312,8.04329484 18.8462694,8.25903162 19.0772276,8.57592773 C19.3081858,8.89282385 19.4236632,9.27327252 19.4236632,9.71728516 C19.4236632,10.4513383 19.1882326,11.0152975 18.7173643,11.4091797 C18.2464961,11.8030619 17.5724306,12 16.6951475,12 L13.8430968,12 Z M15.2019835,8.47119141 L15.2019835,10.9150391 L16.7112608,10.9150391 C17.1373697,10.9150391 17.4703742,10.8094086 17.7102843,10.5981445 C17.9501943,10.3868805 18.0701475,10.0932636 18.0701475,9.71728516 C18.0701475,8.90445557 17.6547871,8.48909514 16.8240538,8.47119141 L15.2019835,8.47119141 Z M15.2019835,7.47216797 L16.5340147,7.47216797 C16.9565429,7.47216797 17.2868618,7.37638442 17.5249815,7.18481445 C17.7631012,6.99324448 17.8821593,6.72200696 17.8821593,6.37109375 C17.8821593,5.98437307 17.7720529,5.70507898 17.551837,5.53320312 C17.331621,5.36132727 16.9887697,5.27539062 16.5232725,5.27539062 L15.2019835,5.27539062 L15.2019835,7.47216797 Z M24.1287413,12 C24.0714493,11.8889968 24.0213196,11.7081718 23.9783507,11.4575195 C23.562984,11.8907899 23.0545255,12.1074219 22.45296,12.1074219 C21.8692983,12.1074219 21.3930661,11.9409196 21.0242491,11.6079102 C20.6554322,11.2749007 20.4710264,10.8631209 20.4710264,10.3725586 C20.4710264,9.75308935 20.701086,9.27775231 21.161212,8.9465332 C21.621338,8.6153141 22.2792904,8.44970703 23.1350889,8.44970703 L23.9353819,8.44970703 L23.9353819,8.06835938 C23.9353819,7.76757662 23.8512356,7.52677499 23.6829405,7.34594727 C23.5146454,7.16511954 23.2586258,7.07470703 22.9148741,7.07470703 C22.6176721,7.07470703 22.3741849,7.14900642 22.1844054,7.29760742 C21.9946258,7.44620843 21.8997374,7.63509 21.8997374,7.86425781 L20.5945616,7.86425781 C20.5945616,7.54557132 20.7001921,7.2474786 20.9114561,6.9699707 C21.1227202,6.69246281 21.4100709,6.47493568 21.7735167,6.31738281 C22.1369625,6.15982994 22.542476,6.08105469 22.9900694,6.08105469 C23.6704114,6.08105469 24.2128864,6.2520328 24.6175108,6.59399414 C25.0221352,6.93595549 25.2298155,7.41666357 25.2405577,8.03613281 L25.2405577,10.6572266 C25.2405577,11.1800156 25.3139619,11.5971664 25.4607725,11.9086914 L25.4607725,12 L24.1287413,12 Z M22.6946593,11.0600586 C22.952473,11.0600586 23.195065,10.9973965 23.4224425,10.8720703 C23.6498199,10.7467442 23.820798,10.5784516 23.9353819,10.3671875 L23.9353819,9.27148438 L23.2317686,9.27148438 C22.7483678,9.27148438 22.3849274,9.35563067 22.1414366,9.52392578 C21.8979458,9.69222089 21.7762022,9.930337 21.7762022,10.2382812 C21.7762022,10.4889335 21.8594533,10.6885572 22.0259581,10.8371582 C22.1924628,10.9857592 22.415361,11.0600586 22.6946593,11.0600586 Z M28.9949522,11.0654297 C29.3208002,11.0654297 29.5911426,10.9705413 29.8059874,10.7807617 C30.0208322,10.5909821 30.1354144,10.3564467 30.1497374,10.0771484 L31.3797179,10.0771484 C31.3653949,10.4388039 31.252603,10.7762842 31.0413389,11.0895996 C30.8300749,11.402915 30.5436194,11.650878 30.1819639,11.8334961 C29.8203085,12.0161142 29.4300129,12.1074219 29.0110655,12.1074219 C28.1982359,12.1074219 27.5537111,11.8442409 27.0774718,11.3178711 C26.6012324,10.7915013 26.3631163,10.0646205 26.3631163,9.13720703 L26.3631163,9.00292969 C26.3631163,8.11848516 26.5994421,7.41040305 27.0721007,6.87866211 C27.5447593,6.34692117 28.1892841,6.08105469 29.0056944,6.08105469 C29.6967786,6.08105469 30.2598426,6.28246869 30.6949034,6.68530273 C31.1299642,7.08813678 31.3582334,7.61718422 31.3797179,8.27246094 L30.1497374,8.27246094 C30.1354144,7.93945146 30.0217274,7.66552842 29.8086729,7.45068359 C29.5956185,7.23583877 29.324381,7.12841797 28.9949522,7.12841797 C28.5724241,7.12841797 28.246581,7.28149261 28.0174132,7.58764648 C27.7882454,7.89380036 27.6718728,8.35839532 27.6682921,8.98144531 L27.6682921,9.19091797 C27.6682921,9.82112945 27.7819791,10.2910955 28.0093565,10.6008301 C28.236734,10.9105647 28.5652626,11.0654297 28.9949522,11.0654297 Z M34.253253,9.5078125 L33.6731749,10.1040039 L33.6731749,12 L32.3679991,12 L32.3679991,3.75 L33.6731749,3.75 L33.6731749,8.50878906 L34.081378,7.99853516 L35.687335,6.18847656 L37.2556944,6.18847656 L35.0965147,8.61083984 L37.4866514,12 L35.9773741,12 L34.253253,9.5078125 Z" id="Back" fill="#6FBAF1"></path>
        </g>
        <g id="BF_EX_LOGO_V_RGB" transform="translate(25.000000, 48.500000) rotate(-90.000000) translate(-25.000000, -48.500000) translate(-1.000000, 41.000000)">
            <path d="M14.1138272,5.07612805 C14.1138272,3.61509146 15.0515697,3.58884146 16.3153439,3.58884146 L16.4594215,3.58884146 C17.6921975,3.58884146 18.3674638,3.79582317 18.3674638,5.20948171 L18.3674638,6.1939939 C18.3674638,7.37844512 18.0611499,7.8825 16.4156755,7.8825 L16.101291,7.8825 C14.5400988,7.8825 14.1138272,7.45445122 14.1138272,6.27539634 L14.1138272,5.07612805 Z M14.1138272,8.21670732 L14.139231,8.21670732 C14.526709,8.72689024 15.2404938,8.99030488 16.1176155,8.99030488 L16.5712169,8.99030488 C18.4058907,8.99030488 19.748261,8.52439024 19.7474356,6.4152439 L19.7474356,5.12734756 C19.7474356,3.17542683 18.8834286,2.48085366 16.6285362,2.48085366 L15.9277743,2.48085366 C14.9429841,2.48085366 14.3948289,2.81405488 14.1377637,3.17414634 L14.1138272,3.17414634 L14.1138272,0.0544207317 L12.7340388,0.0544207317 L12.7340388,8.79045732 L14.1138272,8.79045732 L14.1138272,8.21670732 Z" id="Fill-1" fill="#161916"></path>
            <path d="M36.4745608,2.63588415 L34.6219118,2.63588415 L34.6219118,2.07256098 C34.6219118,1.5347561 34.9753651,1.10195122 35.7288607,1.10195122 L37.1047972,1.10341463 L37.1047972,0.0539634146 L35.2751675,0.0544207317 C34.1693192,0.0544207317 33.2410229,0.628445122 33.2410229,2.07832317 L33.2410229,2.63588415 L32.4981658,2.63588415 L32.4981658,3.74131098 L33.2410229,3.74131098 L33.2410229,8.9877439 L34.6219118,8.9877439 L34.6219118,3.74131098 L36.4745608,3.74131098 L36.4745608,2.63588415" id="Fill-2" fill="#161916"></path>
            <path d="M28.4993016,6.96210366 C28.4993016,8.41253049 29.4280564,8.9877439 30.5345467,8.9877439 L32.2479788,8.9877439 L32.2479788,7.88204268 L30.8710335,7.8825 C30.1185467,7.8825 29.8797319,7.50676829 29.8797319,6.96859756 L29.8797319,3.74131098 L31.7337566,3.74131098 L31.7337566,2.63588415 L29.8797319,2.63588415 L29.8797319,0.0539634146 L28.5002187,0.0539634146 L28.5002187,2.63588415 L27.7571781,2.63588415 L27.7571781,3.74131098 L28.5002187,3.74131098 L28.4993016,6.96210366" id="Fill-3" fill="#161916"></path>
            <polyline id="Fill-4" fill="#161916" points="44.3932346 1.45161585 45.7732981 1.45161585 45.7732981 0.0539634146 44.3932346 0.0544207317 44.3932346 1.45161585"></polyline>
            <polyline id="Fill-5" fill="#161916" points="44.3922257 8.98911585 45.7732981 8.98911585 45.7732981 2.48085366 44.3932346 2.48085366 44.3922257 8.98911585"></polyline>
            <path d="M21.8175309,4.9632622 C21.8175309,3.71323171 22.4013616,3.58847561 23.8252628,3.58847561 L24.1041552,3.58884146 C25.7059753,3.58884146 25.9125996,3.99091463 25.9125996,4.81289634 L25.9139753,5.16192073 L21.8175309,5.16347561 L21.8175309,4.9632622 Z M23.3222293,8.98911585 L24.563351,8.98911585 C26.2348713,8.98911585 26.9987302,8.45981707 27.1940741,7.53448171 L25.9663422,7.16359756 C25.7626526,7.73387195 25.2709912,7.8825 24.1891711,7.8825 L23.8705679,7.8825 C22.1038519,7.8825 21.8167055,7.65969512 21.814963,6.26972561 L21.8175309,6.26844512 L27.2934885,6.26844512 L27.2934885,5.06442073 C27.2934885,2.88603659 26.1589347,2.48085366 24.3459965,2.48085366 L23.6710053,2.48085366 C22.2359153,2.48085366 20.4960705,2.73137195 20.4960705,4.9482622 L20.4960705,6.48493902 C20.4960705,8.63844512 22.0037954,8.99030488 23.3222293,8.98911585 Z" id="Fill-6" fill="#161916"></path>
            <path d="M41.7881905,7.04478659 C41.7881905,7.65594512 41.3681552,7.8825 39.7340529,7.8825 L39.3650088,7.8825 C37.9763245,7.8825 37.8000564,7.61542683 37.8000564,7.08786585 L37.800515,6.74460366 C37.8000564,6.1332622 38.1462646,5.90240854 39.296134,5.90240854 L39.9105961,5.90240854 C40.9583915,5.90240854 41.7881905,6.10746951 41.7881905,6.79207317 L41.7881905,7.04478659 Z M40.0731993,2.48085366 L39.5573263,2.48085366 C37.6856014,2.48085366 36.874328,3.05533537 36.8217778,3.91573171 L38.1372769,4.35064024 C38.1977143,3.76280488 38.8742646,3.58884146 39.9000494,3.58884146 C41.4254744,3.58884146 41.7860811,3.6770122 41.7860811,4.77603659 L41.7860811,5.37310976 L41.758843,5.37310976 C41.4140106,4.91469512 40.9432593,4.79625 39.7481764,4.79625 L39.2088254,4.79625 C37.4466032,4.79625 36.4205432,5.23381098 36.4205432,6.62414634 L36.4205432,7.02164634 C36.4222857,8.1695122 36.8604797,8.98911585 38.7000141,8.98911585 L40.0388078,8.98911585 C41.3703563,8.98911585 41.5037954,8.77125 41.7667302,8.39103659 L41.7881905,8.39103659 L41.7881905,8.9877439 L43.1672451,8.9877439 L43.1672451,4.80429878 C43.1672451,2.98198171 41.9540035,2.48085366 40.0731993,2.48085366 Z" id="Fill-7" fill="#161916"></path>
            <path d="M49.9819965,2.48085366 C49.3691852,2.48085366 48.7434427,2.71253049 48.3563316,3.34545732 L48.306716,3.34545732 L48.306716,2.48085366 L46.9995626,2.48176829 L46.9995626,8.98911585 L48.3799012,8.98911585 L48.3799012,5.07347561 C48.3799012,4.28341463 48.8351534,3.58847561 49.9067937,3.58847561 C50.6729453,3.58847561 51.0422646,3.79582317 51.1243457,4.01332317 L51.9934885,3.4285061 C51.7792522,2.83646341 51.2034004,2.48085366 49.9819965,2.48085366" id="Fill-8" fill="#161916"></path>
            <g id="Group-12">
                <mask id="mask-2" fill="white">
                    <use xlink:href="#path-1"></use>
                </mask>
                <g id="Clip-10"></g>
                <polyline id="Fill-9" fill="#161916" mask="url(#mask-2)" points="10.1922751 0.0763719512 6.61968254 0.0763719512 6.61968254 1.86420732 4.71026455 1.86420732 8.4061164 6.16984756 12.1030688 1.86420732 10.1922751 1.86420732 10.1922751 0.0763719512"></polyline>
                <polyline id="Fill-11" fill="#161916" mask="url(#mask-2)" points="0 7.1597561 1.91015168 7.1597561 1.91015168 8.94932927 5.48256085 8.94932927 5.48256085 7.1597561 7.39280423 7.1597561 3.69741093 2.8554878 0 7.1597561"></polyline>
            </g>
            <polyline id="Fill-13" fill="#161916" points="12.7340388 10.6941768 15.053679 10.6941768 15.053679 11.0776829 13.1587513 11.0776829 13.1587513 12.601189 14.9903986 12.601189 14.9903986 12.9846951 13.1587513 12.9846951 13.1587513 14.5420427 15.053679 14.5420427 15.053679 14.9258232 12.7340388 14.9258232 12.7340388 10.6941768"></polyline>
            <polyline id="Fill-14" fill="#161916" points="16.7473933 12.7611585 15.3924586 10.6939939 15.8862293 10.6939939 17.011612 12.388811 18.1311252 10.6939939 18.6248042 10.6939939 17.2528113 12.7611585 18.7114709 14.9255488 18.2119224 14.9255488 17.011612 13.116128 15.8057072 14.9255488 15.3063422 14.9255488 16.7473933 12.7611585"></polyline>
            <path d="M22.2307795,11.7820427 C21.9150194,11.3010366 21.3179824,11.0318598 20.7491922,11.0318598 C19.7847619,11.0318598 18.9751393,11.8681098 18.9751393,12.7957317 C18.9751393,13.7860061 19.8134674,14.5937195 20.778448,14.5937195 C21.3520988,14.5937195 21.9150194,14.2842988 22.2479295,13.8204878 L22.7187725,13.8204878 C22.3515626,14.524939 21.5762399,15 20.778448,15 C19.5321905,15 18.5501517,14.0440244 18.5501517,12.7957317 C18.5501517,11.5930793 19.5381517,10.6253049 20.743873,10.6253049 C21.1741799,10.6253049 21.605037,10.74 21.9665608,10.9803659 C22.2367407,11.1520427 22.5866173,11.472622 22.7017143,11.7820427 L22.2307795,11.7820427" id="Fill-15" fill="#161916"></path>
            <polyline id="Fill-16" fill="#161916" points="23.1724656 10.6941768 23.5973616 10.6941768 23.5973616 12.5551829 25.7964938 12.5551829 25.7964938 10.6941768 26.2210229 10.6941768 26.2210229 14.9258232 25.7964938 14.9258232 25.7964938 12.938689 23.5973616 12.938689 23.5973616 14.9258232 23.1724656 14.9258232 23.1724656 10.6941768"></polyline>
            <path d="M28.3224832,10.6941768 L28.7937848,10.6941768 L30.6137848,14.9258232 L30.1541305,14.9258232 L29.5399436,13.5056707 L27.5646772,13.5056707 L26.9501235,14.9258232 L26.4910194,14.9258232 L28.3224832,10.6941768 Z M29.3733968,13.1218902 L28.5579965,11.1807622 L27.7313157,13.1218902 L29.3733968,13.1218902 Z" id="Fill-17" fill="#161916"></path>
            <polyline id="Fill-18" fill="#161916" points="30.8831393 10.6941768 31.4578907 10.6941768 33.8348501 14.2041768 33.8348501 10.6941768 34.2592875 10.6941768 34.2592875 14.9258232 33.8348501 14.9258232 31.3083104 11.203811 31.3083104 14.9258232 30.8831393 14.9258232 30.8831393 10.6941768"></polyline>
            <path d="M39.2377143,12.9730793 C39.157284,14.1354878 38.135351,15 36.9924515,15 C35.7695802,15 34.7187584,14.0266463 34.7187584,12.790061 C34.7187584,12.22875 34.9771076,11.6616768 35.3733898,11.2723171 C35.8154356,10.8371341 36.384134,10.6252134 36.9924515,10.6252134 C37.4346808,10.6252134 37.871224,10.7456707 38.2386173,10.986128 C38.5141164,11.1691463 38.8698624,11.4960366 38.9792734,11.8221037 L38.4969665,11.8221037 C38.1982646,11.3239024 37.5840776,11.0316768 36.9924515,11.0316768 C36.5387584,11.0316768 36.0795626,11.1865244 35.7291358,11.5071037 C35.379351,11.8279573 35.1438377,12.3144512 35.1438377,12.7955488 C35.1438377,13.8260671 35.9991323,14.5937195 37.0096014,14.5937195 C37.7677743,14.5937195 38.5141164,14.0953354 38.7266102,13.3565854 L36.35497,13.3565854 L36.35497,12.9730793 L39.2377143,12.9730793" id="Fill-19" fill="#161916"></path>
            <polyline id="Fill-20" fill="#161916" points="39.6798519 10.6941768 41.9992169 10.6941768 41.9992169 11.0776829 40.104381 11.0776829 40.104381 12.601189 41.9363034 12.601189 41.9363034 12.9846951 40.104381 12.9846951 40.104381 14.5420427 41.9992169 14.5420427 41.9992169 14.9258232 39.6798519 14.9258232 39.6798519 10.6941768"></polyline>
        </g>
    </g>
</svg>