<svg height="81" viewBox="0 0 50 81" width="50" xmlns="http://www.w3.org/2000/svg" xmlns:xlink="http://www.w3.org/1999/xlink"><mask id="a" fill="#fff"><path d="m0 .15111111h67.9131959v16.47111109h-67.9131959z" fill="#fff" fill-rule="evenodd"/></mask><g fill="none" fill-rule="evenodd" transform="matrix(0 -1 1 0 16.5 74.5)"><g fill="#fefefe"><path d="m9.65093469 5.68578222c0-.27691111-.07528571-.49715555-.2255102-.66111111-.15022449-.16395555-.40487755-.24555555-.76326531-.24555555h-1.54387755l-.39897959 2.04h1.64795918c.38163266 0 .69110205-.09142223.92806123-.27426667.23695918-.18208889.35561224-.46882222.35561224-.85906667"/><path d="m8.60147959 11.7774489c.28310204-.2202445.425-.5696889.425-1.0483333 0-.3524667-.09540816-.6237112-.28622449-.81260004-.19081632-.18888889-.49438775-.28333334-.91071428-.28333334h-1.66530613l-.48571428 2.47482218h1.80408163c.46246939 0 .83542857-.1103111 1.11887755-.3305555"/><path d="m33.259702 7.64992444c-.277551 0-.5349796.10388889-.7719387.31166667-.2373062.20777778-.419449.57648889-.5464286 1.105h2.1683673c.0350409-.15073333.0520409-.28937778.0520409-.41555555 0-.32715556-.0808368-.57611112-.2428572-.74573334-.1620204-.17-.3816326-.25537778-.6591837-.25537778"/><path d="m44.1272816 11.7774489c.2831021-.2202445.425347-.5696889.425347-1.0483333 0-.3524667-.0957551-.6237112-.2865715-.81260004-.1904693-.18888889-.4940408-.28333334-.9107142-.28333334h-1.6649592l-.4860613 2.47482218h1.8040817c.4624694 0 .8357755-.1103111 1.1188775-.3305555"/><path d="m45.1769102 5.68578222c0-.27691111-.0752857-.49715555-.2255102-.66111111-.1505714-.16395555-.4048776-.24555555-.7632653-.24555555h-1.5438776l-.3989795 2.04h1.6479591c.3816327 0 .6907551-.09142223.9280613-.27426667.2369591-.18208889.3556122-.46882222.3556122-.85906667"/><path d="m54.0411265 7.64992444c-.2778979 0-.5353265.10388889-.7722857.31166667s-.419102.57648889-.5464286 1.105h2.1683674c.0350408-.15073333.0523877-.28937778.0523877-.41555555 0-.32715556-.0811836-.57611112-.243204-.74573334-.1616735-.17-.3812857-.25537778-.6588368-.25537778"/><path d="m63.520951 11.8056689c.1217755.1133333.3035714.17.5464286.17.1269796 0 .2570816-.0124667.3903061-.0377778.1328776-.0253111.2692245-.0566667.4076531-.0944444l.3646326 2.8711111c-.2778979.1133333-.6453061.2111778-1.1018775.2927778-.4565715.0816-.9280612.1227777-1.4134286.1227777-1.0873061 0-1.8970612-.2425333-2.4285714-.7272222-.5322041-.4846889-.7983061-1.1869778-.7983061-2.1061111 0-.3902444.0405918-.7808667.1217755-1.1711111l.572102-2.98444446h-1.4918367l.6244898-3.15444444h1.4921836l.5027143-2.58777778h3.7122449l-.5030612 2.58777778h1.8908163l-.6244898 3.15444444h-1.8908163l-.5030612 2.62555556c-.0346939.1888889-.0516939.3528444-.0516939.4911111 0 .2519778.0603673.4344445.1817959.5477778zm-5.4726122-1.4355556-.0867347.4722223h-5.6207551v.2266666c0 .5542.1040816.9289556.3125918 1.1235111.2078163.1956889.4680204.2931556.7806123.2931556.5086122 0 .8437551-.2708667 1.0057755-.8126h3.4c-.1040817.5666667-.289 1.0740222-.5551021 1.5209333-.266102.4469111-.6012449.8280889-1.0061224 1.1427778-.4048776.3146889-.8701225.5542-1.3960817.7177778-.526653.1632-1.1015306.2455555-1.7263673.2455555-1.3527143 0-2.402551-.3902444-3.1481224-1.1714889-.7462654-.7804888-1.1192245-1.8820888-1.1192245-3.3055555 0-.8182667.124551-1.59875557.3729591-2.34184446.2487551-.74308888.6043674-1.39437777 1.0671837-1.95537777.4624694-.55986667 1.020347-1.00715556 1.6739796-1.34073334.6532857-.33357777 1.3905306-.50093333 2.2117347-.50093333.589449 0 1.127551.0918 1.6129184.27426667.4860612.18246666.9023877.45031111 1.2493265.80277777.3469388.35284445.6182449.79031112.8149592 1.31277778.1967143.52246667.2948979 1.12388889.2948979 1.80388889 0 .22666667-.0083265.4658-.0256734.7174-.0176939.25235556-.0551633.51037779-.1127551.77482219zm-11.197449 3.4188889c-.4683674.3653111-1.0494898.6516667-1.7433674.8590667-.6938775.2081555-1.4980816.3120444-2.4112244.3120444h-5.672449l2.6193877-13.48704441h5.0479592c.7632653 0 1.4078776.08537778 1.9341837.25537778.5259592.16962222.9540816.40573333 1.2836735.70833333.3295918.30222222.5696734.65166667.7198979 1.04833333.1502245.39628889.2255102.82128889.2255102 1.275 0 .78086667-.1908163 1.45142223-.572449 2.01166667-.3816326.56024444-.8846938.9792-1.5091836 1.25611111.4392245.25197778.8007347.595 1.0841836 1.02944445.2831021.43444444.425 1.00451114.425 1.70944444 0 .6172889-.1214285 1.1839556-.3642857 1.7-.2428571.5164222-.5984694.9569111-1.0668367 1.3222222zm-11.3532245.5477778c-.4048775.3146889-.8704694.5542-1.3964286.7177778-.526653.1632-1.1018775.2455555-1.7260204.2455555-1.3530612 0-2.4028979-.3902444-3.1488163-1.1714889-.7459184-.7804888-1.1188776-1.8820888-1.1188776-3.3055555 0-.8182667.1242041-1.59875557.3729592-2.34184446.2487551-.74308888.6043674-1.39437777 1.0671837-1.95537777.4621225-.55986667 1.0203469-1.00715556 1.6736327-1.34073334.6532857-.33357777 1.3905306-.50093333 2.2117347-.50093333.5901428 0 1.127551.0918 1.6136122.27426667.4857143.18246666.9016939.45031111 1.2486327.80277777.3469387.35284445.6189387.79031112.8153061 1.31277778.1963673.52246667.2952449 1.12388889.2952449 1.80388889 0 .22666667-.0086735.4658-.0263674.7174-.017.25235556-.0548163.51037779-.1124081.77482219l-.0867347.4722223h-5.6207551v.2266666c0 .5542.1040816.9289556.3122449 1.1235111.2081632.1956889.4683673.2931556.7806122.2931556.5089592 0 .844102-.2708667 1.0061225-.8126h3.4003469c-.1040816.5666667-.289 1.0740222-.555449 1.5209333-.266102.4469111-.6008979.8280889-1.0057755 1.1427778zm-9.055102.6233333h-3.6081633l.1908163-1.0011111c-.3354898.4155556-.7171224.7362889-1.1448979.9633334-.4277755.2266666-.8905919.3396222-1.3877551.3396222-.4163266 0-.7806123-.0721556-1.0928572-.2168445s-.5783469-.3498222-.7979592-.6138889c-.2196122-.2644444-.3847551-.5761111-.4943877-.935-.1099796-.3592666-.1647959-.7525333-.1647959-1.1805555 0-.34.0346938-.6988889.1040816-1.0766667l1.1969388-6.2522222h3.7122449l-1.144898 5.8744444c-.011449.0630889-.0201224.1292-.0260204.1979556-.005898.0695111-.0086735.136-.0086735.1987111 0 .2142.0433674.3842.1301021.5096222.0867347.1261778.2282857.1888889.425.1888889.2657551 0 .5145102-.0944444.7459183-.2833333.2314082-.1888889.3930817-.5096222.4857143-.9629556l1.1102041-5.7233333h3.7122449zm-13.7908164 0 2.6193878-13.48704441h3.7122449l-2.6193878 13.48704441zm-1.3266938-1.1711111c-.4683674.3653111-1.0498368.6516667-1.74371432.8590667-.69387756.2081555-1.4977347.3120444-2.41087756.3120444h-5.67244898l2.61904082-13.48704441h5.04830612c.76291837 0 1.40753062.08537778 1.93383672.25537778.5263061.16962222.9540817.40573333 1.2840204.70833333.3295919.30222222.5693266.65166667.719898 1.04833333.1498775.39628889.2255102.82128889.2255102 1.275 0 .78086667-.1911633 1.45142223-.572449 2.01166667-.3816326.56024444-.8850408.9792-1.5091837 1.25611111.4392245.25197778.8003878.595 1.0841837 1.02944445.2831021.43444444.425 1.00451114.425 1.70944444 0 .6172889-.1214286 1.1839556-.3646326 1.7-.2425102.5164222-.5984694.9569111-1.0664898 1.3222222zm55.4404693-4.32555553 1.1476735-5.79888889h-1.8967143l.5034082-2.58777778h-6.1949388l-.5027143 2.58777778h-1.4883673l-.2612449 1.32033333c-.0558572-.06384444-.1089388-.13071111-.1675714-.19077778-.470449-.47751111-1.0359592-.84282222-1.6812653-1.08573333-.6116531-.22968889-1.2874898-.34642222-2.0091225-.34642222-.9964082 0-1.9140612.2108-2.7276326.62635555-.5235307.26746667-.997796.6052-1.4259184.99657778.0031224-.0748.0076326-.14884444.0076326-.22477778 0-.62484444-.1068571-1.22324444-.317102-1.77971111-.2255102-.59348889-.5821633-1.11633333-1.0602449-1.55531111-.4569184-.41857778-1.0356122-.74308889-1.7204694-.96408889-.6449592-.20853333-1.3908775-.31015555-2.2797347-.31015555h-6.0322245l-1.0245102 5.27491111c-.1557755-.22628889-.323-.44048889-.5110408-.63164445-.470102-.47751111-1.0356122-.84282222-1.6812653-1.08573333-.6113061-.22968889-1.2874898-.34642222-2.0091224-.34642222-.9964082 0-1.9140613.2108-2.7272858.62635555-.3597755.1836-.6945714.40157778-1.0099387.64448889l.1883877-.96824444h-10.0851632l.6820816-3.51371111h-6.1945919l-.4138979 2.13142222c-.1946327-.31128889-.4274286-.60028889-.7074082-.85717778-.4565714-.41857778-1.0356122-.74308889-1.7204694-.96408889-.6449591-.20853333-1.3905306-.31015555-2.27938772-.31015555h-6.03257142l-3.13285715 16.13148893h7.17053061c1.01895919 0 1.93869388-.1212667 2.73283674-.3592667.52942854-.1586667 1.00681634-.3653111 1.43875514-.6093556l-.1880409.9686223h6.1945919l.2213469-1.1401334c.0433674.0589334.0846531.1197556.1314898.1764222.3382653.4064889.7493878.7242 1.2229592.9433112.4621224.2138222.9894694.3222444 1.5681633.3222444.5429591 0 1.0640612-.1012444 1.5542857-.3018444h5.3792857l.379551-1.9470667c.170347.2667111.3608163.5175555.5793878.7464889.9759387 1.0222666 2.3185918 1.5405778 3.9901428 1.5405778.7323878 0 1.4252245-.0997334 2.0594286-.2965556.4232653-.1318444.8173878-.3101556 1.1847959-.5251111l-.0933265.4816667h7.1701837c1.0189591 0 1.9386938-.1212667 2.7331836-.3592667.8291837-.2482 1.5452653-.6044445 2.1284694-1.0589111.3205714-.2500889.6026327-.5315334.8475714-.8401778.209898.3868444.4600409.7430889.7608368 1.0577778.9755918 1.0222666 2.3185918 1.5405778 3.9897959 1.5405778.7327347 0 1.4255714-.0997334 2.0594286-.2961778.6564081-.204 1.2517551-.5115111 1.7683469-.9130889.527-.4095111.9710816-.9138445 1.3197551-1.5001556.0527347-.0887777.0985306-.1828444.1467551-.2750222.2352245.8552889.668898 1.4261111 1.0560816 1.7789556.7535511.6868 1.8328776 1.0354889 3.2081429 1.0354889.5492041 0 1.0911225-.0472223 1.6097959-.1401556.5391429-.0963333.974551-.2138222 1.3312041-.3592667l.9100204-.3709777-.6827755-5.3810667-1.2066531.3309333.2046939-1.06835553z" mask="url(#a)" transform="translate(0 .226704)"/></g><path d="m34.1097714 9.06659111h-2.1683673c.1269796-.52851111.3091224-.89722222.5464286-1.105.2369591-.20777778.4943877-.31166667.7719387-.31166667s.4971633.08537778.6591837.25537778c.1620204.16962222.2425102.41857778.2425102.74573334 0 .12617777-.0166531.26482222-.0516939.41555555zm2.3935306 4.35388889c.266449-.4465333.4513674-.9538889.555449-1.5205556h-3.4c-.1620204.5417334-.4975102.8122223-1.0061224.8122223-.3122449 0-.572449-.0970889-.7806123-.2927778-.2081632-.1949333-.3122449-.5696889-.3122449-1.1238889v-.2262889h5.6207551l.0867347-.4722222c.0575919-.2644445.0950612-.5224667.1124082-.77482223.0176939-.2516.0260204-.49111111.0260204-.7174 0-.68-.0985306-1.28142223-.2952449-1.80426667-.1963673-.52246667-.4680204-.95993333-.8149592-1.3124s-.7629184-.62031111-1.2489796-.80277778c-.4857143-.18284444-1.0234694-.27426666-1.6132653-.27426666-.8212041 0-1.558449.16697777-2.2117347.50055555-.6532857.33395556-1.2115102.78124445-1.6739796 1.34111111-.4628163.56062222-.8184285 1.21228889-1.0668367 1.95537778-.2487551.74308889-.3729592 1.5235778-.3729592 2.3418444 0 1.4234667.3729592 2.5250667 1.1188776 3.3055556.7459183.7808667 1.7954081 1.1714889 3.1484694 1.1714889.6244897 0 1.1997142-.0823556 1.7263673-.2459333.5256122-.1632.9912041-.4027112 1.3960816-.7174.4048776-.3146889.7400204-.6958667 1.0057755-1.1431556zm-10.0608775 1.7661111h-3.6081633l.1911633-1.0007333c-.3358367.4151778-.7174694.7362889-1.1452449.9633333-.4277755.2262889-.8902449.3396222-1.3877551.3396222-.4159796 0-.7806123-.0721555-1.0925102-.2168444-.3122449-.1446889-.578347-.3498222-.7979592-.6138889-.2199592-.2644444-.3847551-.5764889-.4947347-.9353778-.1096326-.3588889-.1647959-.7521555-.1647959-1.1805555 0-.3396223.0346939-.6985111.1044286-1.0762889l1.1965918-6.25222224h3.7125918l-1.1448979 5.87444444c-.0117959.0630889-.0204694.1288222-.0260204.1979556-.0062449.0695111-.0086735.1356222-.0086735.1983333 0 .2145778.0433673.3845778.130102.51.0867347.1261778.2279388.1888889.425.1888889.2657551 0 .5141633-.0944445.7459184-.2833334.2310612-.1888888.3927347-.51.4857143-.9633333l1.1102041-5.72295554h3.7118979zm-10.0782245 0h-3.7125918l2.6193877-13.48666666h3.7122449zm-9.64489796-8.36739999.39897959-2.04037778h1.54387755c.35838776 0 .61269388.08197778.76326531.24593334.15022449.16357777.2255102.38382222.2255102.66111111 0 .39024444-.11865306.67697778-.35561224.85906666-.23730612.18284445-.54642857.27426667-.92806123.27426667zm-.55510204 2.81406667h1.66530612c.41632653 0 .71989796.09444444.91071429.28333333.19081632.18888889.28622449.46013329.28622449.81222219 0 .4790223-.14189796.8284667-.425 1.0487111-.28344898.2202445-.65640817.3305556-1.11887755.3305556h-1.80408164zm6.5918367 1.36037782c0-.7053112-.1418979-1.27500004-.425-1.70982227-.2834489-.43406666-.6449591-.77708889-1.0841836-1.02906666.6244898-.27728889 1.127551-.69586667 1.5091836-1.25648889.3816327-.55986667.572449-1.23042222.572449-2.01166667 0-.45333333-.0752857-.87833333-.2255102-1.275s-.3903061-.74573333-.7198979-1.04795555c-.3295919-.3026-.7577143-.53871112-1.2836735-.70833334-.5263061-.17-1.17091839-.25537778-1.93418369-.25537778h-5.04795919l-2.61938775 13.48666666h5.67244898c.91348979 0 1.71734694-.1035111 2.41122449-.3116667.69387756-.2077777 1.27499996-.4941333 1.74336736-.8590666.4683673-.3653111.8239796-.8058 1.0668367-1.3222222.2428572-.5164223.3642857-1.0830889.3642857-1.7z" fill="#252d6b"/><path d="m63.390849 10.9934844c-.0346939.1888889-.0516939.3528445-.0516939.4911112 0 .2519777.0603673.4344444.1817959.5477777.1217755.1133334.3035714.17.5464286.17.1269796 0 .2570816-.0124666.3903061-.0377777.1328776-.0253112.2692245-.0566667.4076531-.0944445l.3646326 2.8711111c-.2778979.1133334-.6453061.2111778-1.1018775.2927778-.4565715.0816-.9280612.1227778-1.4134286.1227778-1.0873061 0-1.8970612-.2425334-2.4285714-.7272222-.5322041-.4846889-.7983061-1.1869778-.7983061-2.1061112 0-.3902444.0405918-.7808666.1217755-1.1711111l.572102-2.98444441h-1.4918367l.6244898-3.15444445h1.4921836l.5027143-2.58777777h3.7122449l-.5030612 2.58777777h1.8908163l-.6244898 3.15444445h-1.8908163zm-8.5-1.9270444h-2.1683674c.1273266-.52851111.3094694-.89722222.5464286-1.10462222.2369592-.20777778.4943878-.31204445.7722857-.31204445.277551 0 .4968163.08537778.6588368.25537778.1620204.16962222.2428571.41895556.2428571.74611111 0 .12617778-.017.26444445-.0520408.41517778zm3.2959183.03815556c0-.68-.0981836-1.28142223-.2948979-1.80388889-.1967143-.52246667-.4680204-.95993334-.8149592-1.31277778-.3469388-.35246667-.7632653-.62031111-1.2493265-.80277778-.4853674-.18246667-1.0234694-.27426667-1.6129184-.27426667-.8212041 0-1.558449.16735556-2.2117347.50093334-.6536326.33357778-1.2115102.78086666-1.6739796 1.34073333-.4628163.561-.8184286 1.21228889-1.0671837 1.95537778-.2484081.74308889-.3729591 1.52357781-.3729591 2.34184441 0 1.4234667.3729591 2.5250667 1.1192245 3.3055556.7455714.7812444 1.7954081 1.1714889 3.1481224 1.1714889.6248367 0 1.1997143-.0823556 1.7263673-.2455556.5259592-.1635778.9912041-.4030889 1.3960817-.7177778.4048775-.3146888.7400204-.6958666 1.0061224-1.1427777.2661021-.4469111.4510204-.9542667.5551021-1.5209334h-3.4c-.1620204.5417334-.4971633.8126-1.0057755.8126-.3125919 0-.572796-.0974666-.7806123-.2931555-.2085102-.1945556-.3125918-.5693111-.3125918-1.1235111v-.2266667h5.6207551l.0867347-.4722222c.0575918-.2644445.0950612-.5224667.1127551-.77482224.0173469-.2516.0256734-.49073334.0256734-.7174zm-15.9414897-2.28555556.3989795-2.04h1.5438776c.3583877 0 .6126939.08197778.7632653.24555556.1502245.16395555.2255102.3842.2255102.66111111 0 .39024444-.1186531.67697777-.3556122.85944444-.2373062.18246667-.5464286.27388889-.9280613.27388889zm-.5551021 2.81406667h1.6653061c.4163266 0 .719898.09444444.9107143.28333333.1908163.1888889.2862245.4601333.2862245.8126 0 .4786444-.141898.8280889-.425 1.0483333-.283449.2202445-.6564082.3305556-1.1188775.3305556h-1.8040817zm6.5918367 1.36037773c0-.7049333-.1418979-1.27499996-.425-1.7094444-.2834489-.43444444-.6449591-.77746667-1.0841836-1.02944444.6244898-.27691112 1.127551-.69586667 1.5091836-1.25611112.3816327-.56024444.572449-1.2308.572449-2.01166666 0-.45371111-.0752857-.87871111-.2255102-1.275-.1502245-.39666667-.3903061-.74611111-.7198979-1.04833334-.3295919-.3026-.7577143-.53871111-1.2836735-.70833333-.5263061-.17-1.1709184-.25537778-1.9341837-.25537778h-5.0479592l-2.6193877 13.48704447h5.672449c.9131428 0 1.7173469-.1038889 2.4112244-.3120445.6938776-.2074 1.275-.4937555 1.7433674-.8590666.4683673-.3653111.8239796-.8058 1.0668367-1.3222223.2428572-.5160444.3642857-1.0827111.3642857-1.7z" fill="#e91d25"/></g></svg>