<?xml version="1.0" encoding="UTF-8"?>
<svg width="50px" height="81px" viewBox="0 0 50 81" version="1.1" xmlns="http://www.w3.org/2000/svg" xmlns:xlink="http://www.w3.org/1999/xlink">
    <!-- Generator: Sketch 46.1 (44463) - http://www.bohemiancoding.com/sketch -->
    <title>bookieheader/ladbrokes</title>
    <desc>Created with Sketch.</desc>
    <defs></defs>
    <g id="Symbols" stroke="none" stroke-width="1" fill="none" fill-rule="evenodd">
        <g id="bookieheader/ladbrokes">
            <g id="Group-5" fill="#E92127">
                <rect id="Rectangle" x="0" y="0" width="50" height="81"></rect>
            </g>
            <path d="M8.43512916,37.7316208 L6.51868091,45.0398326 C6.46804305,45.2003156 6.29976955,45.3257417 6.15097214,45.3257417 L4.95981386,45.3257417 C4.7923194,45.3257417 4.73700728,45.2003156 4.76505286,45.0639829 C4.80790028,44.8255955 4.8507477,44.6214859 4.8507477,44.6214859 C3.98912503,45.2525116 3.21865052,45.4418193 2.50972047,45.4418193 C1.15496295,45.4418193 0.173367507,44.5428025 0.321385868,42.7977439 C0.325281088,42.6793292 0.407080708,42.2913653 0.494333636,41.89639 C0.595609357,41.4289636 0.717919265,40.9257012 0.806730282,40.6273273 C1.40971034,38.3275894 2.93585754,36.9432282 5.30960462,36.9432282 C6.24835264,36.9432282 7.3577113,37.0889095 8.22322919,37.3444359 C8.44837291,37.3981899 8.49511555,37.4846638 8.43512916,37.7316208 L8.43512916,37.7316208 Z M4.88892086,38.5332571 C3.616742,38.5332571 3.06284171,39.4213672 2.74499176,40.6273273 L2.34923741,42.1472422 C2.29392528,42.373944 2.26276352,42.5733793 2.23627603,42.7548965 C2.1614878,43.5853574 2.56814877,43.861139 3.15554795,43.861139 C3.71879677,43.861139 4.35371763,43.6258677 5.04161348,43.2441361 L6.2795144,38.6275214 C6.00139569,38.5745464 5.41165938,38.5332571 4.88892086,38.5332571 L4.88892086,38.5332571 Z M28.9457997,37.222905 C29.0112394,36.991529 28.7970023,36.9401121 28.7487015,36.9401121 C28.1340358,36.9401121 27.3433062,37.0016565 26.4583122,37.6420307 L26.5315423,37.3420988 C26.5751688,37.1808367 26.4886949,37.0406087 26.3118519,37.0406087 L25.0311036,37.0406087 C24.862051,37.0406087 24.7140326,37.1722672 24.6704062,37.3420988 C24.6704062,37.3420988 22.9783226,43.7427243 22.6534613,44.9798462 C22.5942539,45.189409 22.6557984,45.3405436 22.8754888,45.3405436 L24.2006427,45.3405436 C24.3696952,45.3405436 24.5379687,45.2003156 24.5753628,45.0281469 L26.1404622,39.1058544 C27.1890554,38.603371 27.8411153,38.585453 28.3093207,38.585453 C28.45656,38.585453 28.6318449,38.4537946 28.6700181,38.2909744 C28.6700181,38.2909744 28.846082,37.6272289 28.9457997,37.222905 L28.9457997,37.222905 Z M56.1157383,37.2299164 C55.3289039,37.026586 54.4423518,36.9362168 53.5448931,36.9362168 C52.1472882,36.9362168 50.4154734,37.3865043 50.2417465,39.3496952 C50.1879925,40.0609623 50.5175281,40.7153593 51.0433828,41.1072184 L52.7268969,42.3334337 C53.0681182,42.5803907 53.1740682,42.8203362 53.1382321,43.0548284 C53.0953847,43.7333758 52.5360311,43.861139 51.8177526,43.861139 C51.4851008,43.861139 50.1638421,43.8003736 49.4751672,43.7100045 C49.2157456,43.6819589 49.1059004,43.8977541 49.0872033,43.9452757 L48.8558273,44.8606524 C48.8122008,45.0110079 48.8994537,45.1348759 49.0482511,45.1691539 C49.9386984,45.4114366 51.1914012,45.4511678 51.6806408,45.4511678 C53.4233623,45.4511678 54.9993683,44.6830304 55.170758,42.8359171 C55.2346396,42.1916477 55.0702613,41.5972371 54.2304518,40.9911409 L52.6162727,39.7937503 C52.3350378,39.6021054 52.2212974,39.4034492 52.2251926,39.2008978 C52.2882951,38.5776626 52.9676215,38.5192343 53.4093395,38.5192343 C54.0045291,38.5192343 55.0414366,38.585453 55.7168678,38.6976353 C55.96772,38.7389247 56.056531,38.515339 56.0962622,38.4054938 L56.3120574,37.5781491 C56.3120574,37.5781491 56.3954151,37.2914609 56.1157383,37.2299164 L56.1157383,37.2299164 Z M49.310789,40.9825714 C49.4159599,40.5128079 49.4673768,40.3897189 49.5133404,39.9495591 C49.6512312,38.2239766 48.851932,36.9362168 46.8965316,36.9362168 C44.6318507,36.9362168 43.0924597,37.9520902 42.353926,40.7036736 C42.353926,40.7036736 42.2386275,41.1072184 42.1326775,41.5434831 C42.0438665,41.9478069 41.9768687,42.373944 41.9675202,42.5001491 C41.7805496,44.7235407 43.3082549,45.4511678 44.6162698,45.4511678 C45.9398656,45.4511678 46.5958206,45.3787167 47.5984502,45.2018737 C47.8843594,45.1691539 47.9334392,45.0639829 48.0035531,44.8287116 C48.0035531,44.8287116 48.2886832,43.6352162 48.3034851,43.6009383 C47.6226006,43.7045511 46.336399,43.8003736 45.2667715,43.8003736 C44.1581919,43.8003736 43.8068431,43.2682865 43.8722828,42.463534 C43.8808523,42.268773 43.9423967,42.0677797 43.9930346,41.8621121 L48.7896085,41.8621121 C48.9937181,41.8621121 49.1222603,41.737465 49.1775724,41.5029728 C49.1775724,41.5029728 49.2282103,41.3183394 49.310789,40.9825714 L49.310789,40.9825714 Z M46.461046,38.603371 C47.2642404,38.603371 47.6763546,39.0645651 47.6031245,39.9191763 C47.5867646,40.1217278 47.5423591,40.2954546 47.5010697,40.4761928 L44.3693128,40.4761928 C44.6489896,39.4034492 45.2737829,38.603371 46.461046,38.603371 L46.461046,38.603371 Z M43.4258906,37.3444359 C43.5676766,37.2205679 43.5902688,37.026586 43.3324053,37.026586 L41.5772191,37.026586 C41.4354331,37.026586 41.3294831,37.0694334 41.2110685,37.2057661 L38.0068605,40.3710219 L39.7005021,34.0046743 L37.7458807,34.0046743 C37.7458807,34.0046743 35.7024483,41.8114742 34.846279,45.0203565 C34.8057687,45.1590263 34.8875683,45.3257417 35.0698646,45.3257417 L36.4207269,45.3257417 C36.5780938,45.3257417 36.7658434,45.189409 36.7931099,45.0203565 L37.7139399,41.5146585 L39.2135996,45.0234726 C39.2689118,45.1629215 39.397454,45.3210675 39.5750761,45.3210675 L41.2430093,45.3210675 C41.3731096,45.3210675 41.5585221,45.2003156 41.4595835,44.9821833 C41.1409545,44.2935084 39.5556,40.9911409 39.5556,40.9911409 L43.4258906,37.3444359 L43.4258906,37.3444359 Z M35.4173182,39.8256911 C35.5575461,38.283963 34.7395499,36.9401121 32.7265002,36.9401121 C30.4142976,36.9401121 28.8858133,38.1826873 28.2360906,40.6000608 C28.2360906,40.6000608 28.0522362,41.2630272 27.9579719,41.6206084 C27.871498,41.9392374 27.8029421,42.268773 27.7850241,42.5001491 C27.6502495,44.0496676 28.45656,45.4511678 30.4727259,45.4511678 C32.8012884,45.4511678 34.2853673,44.2226154 34.9514499,41.7826496 L35.2568351,40.639792 C35.343309,40.3118145 35.3939469,40.0796594 35.4173182,39.8256911 L35.4173182,39.8256911 Z M32.2910146,38.603371 C33.1503002,38.603371 33.5211251,39.0801459 33.4432207,39.9495591 C33.4221865,40.1458781 33.4003733,40.3616733 33.3325965,40.6000608 L33.0046189,41.7826496 C32.6361311,43.1693479 31.9458981,43.791025 30.9152229,43.791025 C30.049705,43.791025 29.6617411,43.3173663 29.7287389,42.4487322 C29.7443198,42.3225271 29.7567845,42.1721716 29.890001,41.6704673 C29.9515455,41.3814419 30.1751311,40.6000608 30.1751311,40.6000608 C30.5740016,39.1416904 31.3865445,38.603371 32.2910146,38.603371 L32.2910146,38.603371 Z M23.0889469,40.6242112 C23.1699674,40.3164888 23.2128149,40.0266844 23.2455347,39.7283106 C23.3779722,38.0642726 22.5755569,36.9401121 20.5500425,36.9401121 C20.1963565,36.9401121 19.6642694,36.9681577 19.1095901,37.026586 L19.9057731,34.0046743 L17.9589421,34.0046743 C17.9589421,34.0046743 15.6124616,42.940309 15.1271171,44.746912 C15.053108,45.0110079 15.4130263,45.0702153 15.4410719,45.0780057 C16.2871137,45.3109399 17.3645315,45.4511678 18.3056167,45.4511678 C20.736234,45.4511678 22.1681168,44.2226154 22.8022587,41.7655106 L23.0889469,40.6242112 L23.0889469,40.6242112 Z M20.1270216,38.5192343 C21.0945942,38.5192343 21.3875148,38.9617313 21.3057151,39.7594723 C21.2940295,40.0266844 21.2433916,40.3001289 21.1452321,40.6242112 L20.8585439,41.7655106 C20.5726347,42.8577303 19.993026,43.861139 18.7200681,43.861139 C18.1833068,43.861139 17.5881172,43.826082 17.3286955,43.773107 L18.6850111,38.6158357 C19.1197177,38.5690931 19.7819051,38.5192343 20.1270216,38.5192343 L20.1270216,38.5192343 Z M17.0272055,34.0046743 L15.0601194,34 L14.2686107,37.026586 C13.743535,36.9681577 13.2496211,36.9401121 12.894377,36.9401121 C10.5276414,36.9401121 9.05836436,37.9544274 8.3844913,40.6242112 C8.3844913,40.6242112 8.16557994,41.4686949 8.09468693,41.7655106 C7.97081893,42.2874701 7.96692371,42.40978 7.95835423,42.5733793 C7.80098734,44.1937908 8.59639127,45.4511678 10.6406027,45.4511678 C11.5894783,45.4511678 12.7144179,45.3109399 13.7045828,45.0780057 C14.0496993,44.993869 14.1369522,44.9120694 14.2062871,44.6830304 L17.0272055,34.0046743 Z M12.4791466,38.5192343 C12.823484,38.5192343 13.4537306,38.5690931 13.849485,38.6158357 L12.4978436,43.773107 C12.1963536,43.826082 11.5964897,43.861139 11.0714141,43.861139 C10.1085157,43.861139 9.79923521,43.490314 9.87246535,42.6793292 C9.88103483,42.4954749 9.91687085,42.2765635 10.0298322,41.7655106 C10.0874815,41.4982985 10.3282061,40.6242112 10.3282061,40.6242112 C10.6873454,39.2008978 11.2100839,38.5192343 12.4791466,38.5192343 L12.4791466,38.5192343 Z M-0.320546391,44.9494635 C-0.363393811,45.1512359 -0.467006664,45.2018737 -0.68825516,45.2641972 C-1.16658818,45.3537873 -3.09160591,45.3537873 -3.87610322,45.3537873 C-5.2300817,45.3537873 -6.36904403,44.3901099 -5.88759484,42.5733793 C-5.2300817,40.0882289 -3.63304149,34.0046743 -3.63304149,34.0046743 L-1.59817856,34.0046743 L-3.8207911,42.4526274 C-3.85195286,42.6286914 -3.88311462,42.7977439 -3.89090506,42.9434252 C-3.94543814,43.5214758 -3.69224884,43.7045511 -2.99967872,43.7045511 L-0.282373235,43.7045511 C-0.191225086,43.7045511 -0.00659165768,43.773107 -0.0704732659,44.0239592 C-0.183434646,44.4212716 -0.320546391,44.9494635 -0.320546391,44.9494635 L-0.320546391,44.9494635 Z" id="Ladbrokes-light" fill="#FFFFFF" transform="translate(25.161842, 39.725584) rotate(-90.000000) translate(-25.161842, -39.725584) "></path>
        </g>
    </g>
</svg>