<?xml version="1.0" encoding="UTF-8"?>
<svg width="50px" height="81px" viewBox="0 0 50 81" version="1.1" xmlns="http://www.w3.org/2000/svg" xmlns:xlink="http://www.w3.org/1999/xlink" style="background: #111111;">
    <!-- Generator: Sketch 46.2 (44496) - http://www.bohemiancoding.com/sketch -->
    <title>50x81</title>
    <desc>Created with Sketch.</desc>
    <defs>
        <polygon id="path-1" points="18.6215877 11.8499235 0 11.8499235 0 0.224213026 18.6215877 0.224213026 37.2431754 0.224213026 37.2431754 11.8499235 18.6215877 11.8499235"></polygon>
    </defs>
    <g id="Pointsbet" stroke="none" stroke-width="1" fill="none" fill-rule="evenodd">
        <g id="50x81">
            <g id="Page-1" transform="translate(25.000000, 41.000000) rotate(-90.000000) translate(-25.000000, -41.000000) translate(-3.000000, 35.000000)">
                <g id="Group-3">
                    <mask id="mask-2" fill="white">
                        <use xlink:href="#path-1"></use>
                    </mask>
                    <g id="Clip-2"></g>
                    <path d="M10.115343,9.93335429 C10.2618306,9.93335429 10.3872141,9.90684789 10.4921141,9.85352323 C10.5963934,9.80051041 10.6960174,9.72566879 10.7900551,9.63024572 C10.884403,9.53419898 10.9703714,9.40665638 11.0488912,9.24668241 C11.1274111,9.08702028 11.2059309,8.86904406 11.2844508,8.59213006 C11.3629706,8.31521606 11.448939,7.96938539 11.543287,7.55401439 C11.6373246,7.13895523 11.7419143,6.63346244 11.857056,6.03691234 C11.9091957,5.76031018 11.9616457,5.4780949 12.0140957,5.19089017 C12.0662354,4.90306177 12.1106162,4.62645961 12.1475484,4.36014817 C12.18386,4.09446041 12.2152059,3.84405282 12.241586,3.60986091 C12.2676559,3.375669 12.2806908,3.17328478 12.2806908,3.00302009 C12.2806908,2.73702049 12.231034,2.52652843 12.1317203,2.37216758 C12.0324067,2.21780673 11.85178,2.14078223 11.590461,2.14078223 C11.443663,2.14078223 11.3182795,2.16728864 11.2136898,2.22030146 C11.1032034,2.27830371 11.002338,2.35376902 10.9157489,2.44420264 C10.8214009,2.53993755 10.7351222,2.66748015 10.6566023,2.82745411 C10.5780825,2.9868044 10.499873,3.20509247 10.4213532,3.48200647 C10.3428333,3.75892047 10.2568649,4.10475113 10.162517,4.51981029 C10.068169,4.9351813 9.96388968,5.44098593 9.84874792,6.03691234 C9.79598754,6.31382634 9.74384788,6.59604163 9.69170822,6.88324635 C9.6392582,7.17076292 9.59239457,7.44767692 9.55049663,7.71367652 C9.51077117,7.96283675 9.4794253,8.21293251 9.45645902,8.46427562 C9.43535487,8.69877937 9.42511315,8.90053991 9.42511315,9.07111644 C9.42511315,9.33742788 9.47476998,9.5476081 9.57408362,9.70196894 C9.67339726,9.85632979 9.8537136,9.93335429 10.115343,9.93335429 L10.115343,9.93335429 Z M5.46839548,3.54593369 C5.4420153,3.71619838 5.41873866,3.85995666 5.39763451,3.97689669 C5.28280311,4.54132726 5.13600513,4.96698899 4.95848199,5.25450555 C4.78033814,5.54202212 4.47712117,5.6857804 4.04821037,5.6857804 L3.27946069,5.6857804 L3.9538624,2.26832483 L4.67574846,2.26832483 C4.98920715,2.26832483 5.20645575,2.33505861 5.32687354,2.46790249 C5.44698098,2.60105821 5.50718988,2.80593715 5.50718988,3.08285115 C5.50718988,3.22130815 5.49415496,3.375669 5.46808513,3.54593369 L5.46839548,3.54593369 Z M7.50029058,1.74131507 C7.41618434,1.46377739 7.26504138,1.2118106 7.0608277,1.00693166 C6.8401652,0.77866471 6.56860445,0.606217139 6.26849103,0.503621749 C5.9705501,0.402273719 5.57019197,0.351755624 5.06803735,0.351755624 L2.22828783,0.351755624 L-6.20710279e-05,11.7220691 L2.102594,11.7220691 L2.69226876,8.6850584 C2.82323863,7.78758262 1.43719258,7.60141408 1.43719258,7.60141408 L3.938655,7.60203776 C4.40915339,7.60203776 4.83278816,7.54902495 5.20924894,7.44237564 C5.5844683,7.33697369 5.92865215,7.14238547 6.21355817,6.87545035 C6.50653342,6.60414947 6.75761073,6.23430712 6.9667901,5.76529962 C7.17596946,5.29753948 7.35380295,4.70098939 7.50060093,3.97689669 C7.54498172,3.75549023 7.57632759,3.53158904 7.59432819,3.3064405 C7.61543234,3.06164602 7.62598441,2.83244356 7.62598441,2.61976861 C7.62598441,2.31104692 7.58377611,2.01822908 7.50029058,1.74131507 L7.50029058,1.74131507 Z M32.9596537,11.8499235 C32.436395,11.8499235 32.009967,11.788491 31.6809905,11.6659378 C31.3513934,11.5436965 31.0714531,11.365324 30.8411695,11.1311321 C30.4647088,10.7478806 30.2763232,10.2476891 30.2763232,9.62993388 C30.2763232,9.30031891 30.3129451,8.91706743 30.3861889,8.48017946 L32.488845,8.48017946 C32.4677408,8.61894831 32.4525334,8.74118962 32.441671,8.84752709 C32.4317396,8.94295016 32.4267739,9.03899691 32.4264636,9.13473182 C32.4264636,9.4013551 32.4835689,9.59282491 32.5987107,9.70976495 C32.6614024,9.77400401 32.7374394,9.82732866 32.826201,9.86973891 C32.9149626,9.91246101 33.0226558,9.93366613 33.1477289,9.93366613 C33.2945269,9.93366613 33.4248761,9.91495573 33.5403282,9.87753492 C33.6551596,9.84042595 33.7650253,9.76839088 33.869615,9.66236525 C33.9844464,9.54511338 34.0710355,9.41195766 34.1287615,9.26258626 C34.1861772,9.11383853 34.2407997,8.91706743 34.2932498,8.67196112 C34.324906,8.51229899 34.3456998,8.35513159 34.3562518,8.20077074 C34.3668039,8.04672174 34.3717696,7.92136202 34.3717696,7.82562711 C34.3717696,7.60203776 34.3090779,7.42117051 34.1836944,7.28271351 C34.0580006,7.14425651 33.8752014,7.01640207 33.6343658,6.8991502 L32.5515367,6.37214044 C32.1120738,6.1594655 31.8007876,5.89596062 31.6179885,5.58193765 C31.4348789,5.26791468 31.3433242,4.91397617 31.3433242,4.52012213 C31.3433242,4.27532766 31.3538762,4.04893176 31.37467,3.84124625 C31.3954638,3.63356075 31.4323961,3.40778853 31.4845357,3.16268221 C31.5683316,2.75822561 31.683163,2.37216758 31.829961,2.00481995 C31.9761383,1.63747232 32.1750759,1.32625591 32.4261532,1.07054704 C32.6825066,0.807977679 32.9857236,0.596861936 33.3209071,0.447802372 C33.6554699,0.298742808 34.0995881,0.224213026 34.6541928,0.224213026 C35.1880036,0.224213026 35.611328,0.285645524 35.9254074,0.408198681 C36.2320383,0.526074235 36.5104269,0.708500689 36.7413311,0.943004438 C36.9083022,1.11326913 37.033996,1.32906247 37.1177919,1.58976079 C37.2015878,1.85045911 37.2431754,2.12456655 37.2431754,2.41208311 C37.2431754,2.57174524 37.2382097,2.74731121 37.2276576,2.93909287 C37.2171055,3.13056268 37.1907253,3.33824819 37.1491377,3.56183753 L35.0464817,3.56183753 C35.0781379,3.4021754 35.0986213,3.26652496 35.1091734,3.15457437 C35.1194151,3.04293562 35.1246912,2.94470599 35.1246912,2.8592618 C35.1246912,2.59326221 35.0725515,2.40678183 34.9679618,2.30013252 C34.9170636,2.25148546 34.8590272,2.21094625 34.7954044,2.18038592 C34.7221606,2.14327695 34.6278126,2.12456655 34.5129812,2.12456655 C34.2721456,2.12456655 34.0738287,2.20439761 33.916789,2.36405974 C33.8227514,2.46010649 33.7470247,2.58764908 33.6892987,2.74762305 C33.6387108,2.88233797 33.5992957,3.02110681 33.5713637,3.16268221 C33.519224,3.42899365 33.4931542,3.66318556 33.4931542,3.86525794 C33.4931542,4.22699245 33.6815398,4.49361573 34.0580006,4.66356858 L34.9524441,5.09484342 C35.5380842,5.37175743 35.9486841,5.66457527 36.1842436,5.97298512 C36.4194928,6.28201866 36.5371174,6.68148581 36.5371174,7.17076292 C36.5371174,7.39435226 36.5268757,7.63384545 36.5060819,7.88955433 C36.4846674,8.14495137 36.4486662,8.4112628 36.3962162,8.68786497 C36.3428351,8.96727369 36.2773502,9.24449953 36.1997614,9.51829513 C36.1314832,9.75248704 36.0585498,9.96017254 35.9800299,10.1410398 C35.9089586,10.3084979 35.8223695,10.4690956 35.7211937,10.6200262 C35.6271561,10.7584832 35.5225665,10.8863376 35.4077351,11.0035895 C35.131519,11.2867403 34.7966458,11.5047165 34.4267025,11.6419262 C34.0555177,11.7803832 33.566398,11.8499235 32.9596537,11.8499235 L32.9596537,11.8499235 Z M27.237636,2.26832483 L25.448749,2.26832483 L25.8252098,0.352067464 L31.5056399,0.352067464 L31.1291791,2.26832483 L29.3402921,2.26832483 L27.4887133,11.7220691 L25.3860573,11.7220691 L27.237636,2.26832483 Z M19.0048452,0.352067464 L20.7152124,0.352067464 L21.8449051,6.11705525 L22.8963883,0.352067464 L24.9990444,0.352067464 L22.7706945,11.7220691 L21.1388472,11.7220691 L19.9936367,5.97329696 L18.8794618,11.7220691 L16.7768057,11.7220691 L19.0051556,0.352067464 L19.0048452,0.352067464 Z M15.9220876,0.352067464 L18.0247437,0.352067464 L15.7963938,11.7220691 L13.6940481,11.7220691 L15.922398,0.352067464 L15.9220876,0.352067464 Z M9.91143966,11.8496117 C9.32548915,11.8496117 8.85468041,11.7510702 8.49932377,11.5542991 C8.14334643,11.357528 7.87147533,11.0887218 7.68308976,10.7478806 C7.53660213,10.4921717 7.44008168,10.2448825 7.3929077,10.0050775 C7.34573372,9.76589616 7.32245708,9.46528232 7.32245708,9.10323597 C7.32245708,8.75179218 7.35876864,8.31521606 7.4323228,7.79350758 C7.51736011,7.20475349 7.62194979,6.61880595 7.74578149,6.03691234 C7.91337327,5.22799914 8.06234374,4.5494351 8.19331361,4.00090838 C8.32366276,3.4526935 8.45214979,2.99491224 8.57784362,2.62756462 C8.7032271,2.26052883 8.83636945,1.9624097 8.9778914,1.73320723 C9.11910299,1.50462844 9.27831517,1.2997495 9.45645902,1.11857041 C9.75967599,0.809848719 10.091756,0.583764652 10.452699,0.44000637 C10.813642,0.296248087 11.2608638,0.224213026 11.7943643,0.224213026 C12.3800044,0.224213026 12.8508132,0.322754495 13.2064802,0.519837434 C13.5621472,0.716920372 13.8340183,0.985726531 14.0227142,1.32625591 C14.1685811,1.58196479 14.2657223,1.82925398 14.3128962,2.06874717 C14.3597599,2.30824036 14.3833469,2.60916605 14.3833469,2.97090056 C14.3833469,3.32234434 14.346725,3.75892047 14.2734811,4.28062894 C14.1884438,4.86938304 14.0838541,5.45501873 13.9600224,6.03691234 C13.7924307,6.85705178 13.6434602,7.53811055 13.5124903,8.08102415 C13.3815205,8.62393775 13.2536542,9.07891244 13.1282707,9.44626007 C13.0025768,9.8136077 12.8691241,10.1117268 12.7279125,10.3409293 C12.586701,10.5698199 12.4271784,10.7746989 12.2493449,10.9552543 C11.9458176,11.2645996 11.6137376,11.4903719 11.2531049,11.6341302 C10.8921619,11.7778884 10.4449401,11.8496117 9.91143966,11.8496117 L9.91143966,11.8496117 Z" id="Fill-1" fill="#ED1B42" mask="url(#mask-2)"></path>
                </g>
                <path d="M41.3926399,3.15177861 C41.3081844,3.57414772 41.1711788,3.88308055 40.9816231,4.07857711 C40.7917546,4.27437536 40.4861509,4.37212364 40.0641862,4.37212364 L39.4629882,4.37212364 L39.985361,1.85389869 L40.6491187,1.85389869 C40.9759927,1.85389869 41.1949514,1.91574559 41.3059948,2.03913771 C41.4164125,2.16283152 41.471465,2.3381147 41.471465,2.56468555 C41.471465,2.71915197 41.4451899,2.91464853 41.3926399,3.15177861 L41.3926399,3.15177861 Z M40.5862463,7.69375497 C40.5421417,7.91911906 40.4814589,8.14116453 40.4045105,8.35777955 C40.3353822,8.54332026 40.2515523,8.6929596 40.1511441,8.80609418 C40.0510487,8.91953046 39.9246782,9.00460766 39.7717199,9.06072242 C39.6184488,9.11774225 39.4263908,9.14610131 39.1946074,9.14610131 L38.4983187,9.14610131 L38.9005771,7.18148158 C39.0322651,6.31321138 37.6356215,6.13310112 37.6356215,6.13310112 L39.8111325,6.13310112 C40.1170491,6.13310112 40.3385101,6.19796495 40.4755157,6.32648583 C40.6125213,6.4556101 40.6813369,6.66407943 40.6813369,6.9521955 C40.6813369,7.15825128 40.6491187,7.4056389 40.5862463,7.69375497 L40.5862463,7.69375497 Z M43.2112482,0.741559475 C43.010119,0.47033817 42.7251599,0.267600998 42.3967219,0.162310414 C42.0648431,0.0540029072 41.6456936,0 41.1392734,0 L38.245265,0 L36,10.9996983 L39.0995167,10.9996983 C39.7004019,10.9996983 40.1799215,10.9562546 40.5387009,10.8687639 C40.8968548,10.7812731 41.2237289,10.6084035 41.5193231,10.35106 C41.6582055,10.2249527 41.7826991,10.0852692 41.8909273,9.9338197 C42.001345,9.77905159 42.1042556,9.59924303 42.1990335,9.39318724 C42.2944369,9.18713146 42.381082,8.9527166 42.4602199,8.69024437 C42.539045,8.42777214 42.6156806,8.12125285 42.6895009,7.77098818 C42.742051,7.53415979 42.7767716,7.3205617 42.7924115,7.12989221 C42.8077386,6.93952442 42.8161842,6.76695647 42.8161842,6.61218837 C42.8161842,6.22089356 42.7210935,5.89657442 42.5315379,5.63892927 C42.4752342,5.56350621 42.4117362,5.49381531 42.3413566,5.43076164 C42.2650339,5.36167412 42.1802656,5.30193906 42.0889285,5.25276323 C42.2049766,5.20660432 42.31602,5.14988618 42.4204945,5.08291051 C42.515898,5.0210636 42.6050454,4.95408793 42.6895009,4.88198349 C42.952877,4.65571432 43.1374279,4.39806917 43.2431536,4.10965141 C43.3482538,3.82123365 43.4377141,3.50204328 43.5118472,3.15177861 C43.5643973,2.92520776 43.5991179,2.72458243 43.6147578,2.54929925 C43.6300849,2.37431776 43.6385305,2.23010888 43.6385305,2.11667261 C43.6385305,1.57060969 43.4962073,1.11233921 43.2112482,0.741559475 L43.2112482,0.741559475 Z M45.1778101,0 L42.9319195,11 L47.8659973,11 L48.2454214,9.14610131 L45.4302382,9.14610131 L45.9998436,6.33402814 L48.41965,6.33402814 L48.7993869,4.48043115 L46.3792677,4.48043115 L46.9172805,1.85389869 L51.6984,1.85389869 L49.8322464,11 L51.9517665,11 L53.8179202,1.85389869 L55.6202631,1.85389869 L56,0 L45.1774973,0 L45.1778101,0 Z" id="Fill-4" fill="#FFFFFF"></path>
            </g>
        </g>
    </g>
</svg>