<?xml version="1.0" encoding="UTF-8"?>
<svg width="50px" height="81px" viewBox="0 0 50 81" version="1.1" xmlns="http://www.w3.org/2000/svg" xmlns:xlink="http://www.w3.org/1999/xlink">
    <!-- Generator: Sketch 52.6 (67491) - http://www.bohemiancoding.com/sketch -->
    <title>odds-table-logo</title>
    <desc>Created with Sketch.</desc>
    <g id="odds-table-logo" stroke="none" stroke-width="1" fill="none" fill-rule="evenodd">
        <path d="M31.1445909,46.9843769 C30.9047,46.9843769 30.7657443,46.8169745 30.779992,46.5712823 C30.7895973,46.3150292 30.943121,46.1319164 31.192457,46.1319164 C31.4323478,46.1319164 31.5715437,46.299057 31.5569757,46.539687 C31.5473705,46.7959401 31.3938468,46.9843769 31.1445909,46.9843769 Z M32.3635756,44.5509325 C32.6131517,44.320776 32.934687,44.1899438 33.2945633,44.1899438 C33.7938756,44.1899438 34.1729623,44.4621691 34.2979105,44.927457 L33.7793076,45.2208039 C33.6786127,44.9013604 33.4961933,44.7755904 33.2513397,44.7755904 C33.035382,44.7755904 32.8576851,44.8592916 32.7184891,45.0008592 C32.545755,45.189296 32.4497826,45.4928547 32.4497826,45.760105 C32.4497826,46.1632498 32.6753456,46.4196775 33.035382,46.4196775 C33.2802355,46.4196775 33.5057985,46.2888453 33.6833353,45.9694889 L34.1297388,46.2627486 C33.8848852,46.7335352 33.4290366,47 32.9298044,47 C32.2675232,47 31.8504158,46.5138522 31.8504158,45.8122983 C31.8504158,45.3306018 32.0325951,44.8542293 32.3635756,44.5509325 Z M35.459584,47 C34.7491966,47 34.3128786,46.4772821 34.3128786,45.7966752 C34.3128786,45.3515489 34.4949779,44.8908868 34.8017852,44.5821786 C35.0466388,44.3418104 35.3828221,44.1899438 35.7671117,44.1899438 C36.4823817,44.1899438 36.913817,44.7130108 36.913817,45.3935304 C36.913817,45.859342 36.7027419,46.3620729 36.3720816,46.6603075 C36.1318706,46.8694296 35.8198604,47 35.459584,47 Z M35.4931222,46.4196775 C35.6950724,46.4196775 35.8774118,46.3411258 36.0166077,46.2102936 C36.2232004,46.0060591 36.3145302,45.7024132 36.3145302,45.4352501 C36.3145302,45.0321053 36.1125801,44.7705281 35.7382159,44.7705281 C35.5172954,44.7705281 35.3203881,44.8647029 35.1762294,45.0216317 C35.0034952,45.2102431 34.9171281,45.4928547 34.9171281,45.760105 C34.9171281,46.1578385 35.1234006,46.4196775 35.4931222,46.4196775 Z M40.3750645,44.1899438 C40.8259504,44.1899438 41.0898543,44.4723808 41.0898543,44.9796502 C41.0898543,45.0478156 41.0849717,45.1158065 41.0752864,45.1943582 L40.8499635,46.9267724 L40.2646843,46.9267724 L40.4711169,45.3512871 C40.4807222,45.288533 40.4856048,45.2259534 40.4856048,45.1734111 C40.4856048,44.9013604 40.370422,44.7755904 40.1158832,44.7755904 C39.78002,44.7755904 39.5208387,45.0005973 39.4727325,45.3933559 L39.2710225,46.9267724 L38.6856632,46.9267724 L38.8919357,45.3512871 C38.901541,45.288533 38.9062635,45.2259534 38.9062635,45.1734111 C38.9062635,44.9013604 38.7912408,44.7755904 38.5368621,44.7755904 C38.2008389,44.7755904 37.9414974,45.0005973 37.8935513,45.3933559 L37.696884,46.9267724 L37.1112046,46.9267724 L37.4567531,44.2634333 L38.0328272,44.2634333 L37.9799984,44.6712039 C38.1480901,44.3730565 38.4551375,44.1899438 38.8055686,44.1899438 C39.1560798,44.1899438 39.4102984,44.3784679 39.4823377,44.7130108 C39.6454667,44.3940036 39.9863726,44.1899438 40.3750645,44.1899438 Z M41.6755337,46.9843769 C41.435803,46.9843769 41.2966871,46.8169745 41.3110149,46.5712823 C41.3206202,46.3150292 41.4741439,46.1319164 41.72364,46.1319164 C41.9632906,46.1319164 42.1024866,46.299057 42.0879987,46.539687 C42.0786335,46.7959401 41.9251098,46.9843769 41.6755337,46.9843769 Z M45.1025226,44.2634333 L44.756814,46.9267724 L44.1809,46.9267724 L44.2288461,46.5243258 C44.0513093,46.8274481 43.7200887,47 43.3646949,47 C42.7746131,47 42.3814387,46.5243258 42.3814387,45.807236 C42.3814387,45.3306018 42.5541729,44.848818 42.8513749,44.5509325 C43.0720553,44.320776 43.3599723,44.1899438 43.6719825,44.1899438 C44.0560319,44.1899438 44.367962,44.3889414 44.468737,44.7188586 L44.5265285,44.2634333 L45.1025226,44.2634333 Z M44.1135032,46.168312 C44.2863175,45.985112 44.3776473,45.6919396 44.3776473,45.4250384 C44.3776473,45.0269558 44.1616895,44.7705281 43.7968505,44.7705281 C43.5808928,44.7705281 43.3985533,44.8542293 43.2593574,45.0008592 C43.0673327,45.2048318 42.9856882,45.5138018 42.9856882,45.7651672 C42.9856882,46.1632498 43.1919607,46.4196775 43.5567196,46.4196775 C43.7776401,46.4196775 43.9696648,46.3255027 44.1135032,46.168312 Z M47.819124,44.2634333 L47.4736556,46.9267724 L46.8975815,46.9267724 L46.9504103,46.5190017 C46.7727134,46.8169745 46.451178,47 46.0816165,47 C45.626008,47 45.3813947,46.7230616 45.3813947,46.2261785 C45.3813947,46.1527763 45.3861172,46.0743991 45.3957225,45.9958474 L45.6210453,44.2634333 L46.2062445,44.2634333 L45.999972,45.8335072 C45.9903667,45.9067349 45.9855641,45.9802243 45.9855641,46.0374798 C45.9855641,46.2993188 46.0863391,46.4196775 46.3407978,46.4196775 C46.691309,46.4196775 46.9839486,46.1685739 47.0367774,45.796937 L47.2335247,44.2634333 L47.819124,44.2634333 Z M44.7246365,35.5304041 C44.723756,35.5290949 44.7232758,35.5280476 44.7223152,35.5270875 C44.4659354,35.2334787 43.0706145,34.7773551 42.8523355,35.1254265 C42.6340564,35.4738469 42.9830468,36.592074 43.1321681,36.8721545 L43.1354499,36.8697979 C43.2741655,37.1263129 43.5387098,37.2844636 43.8905817,37.2844636 C44.5194846,37.2844636 44.9607653,36.8239761 44.9607653,36.1482569 C44.9607653,35.8943603 44.8760791,35.6803506 44.7246365,35.5304041 Z M55,37.909037 L54.3990323,42.5462058 C54.1737094,44.2865624 53.1692416,45.3408135 51.3760237,45.3408135 C50.4372718,45.3408135 49.5828859,45.0336763 49.1133498,44.5424664 L49.8741647,43.3038806 C50.3152853,43.6619891 50.8316469,43.8463237 51.319753,43.8463237 C52.2023143,43.8463237 52.7560563,43.3650636 52.8687578,42.5462058 L52.9156633,42.1879227 C52.5964493,42.7203287 52.0427073,43.0478893 51.3666586,43.0478893 C50.2682996,43.0478893 49.4892348,42.157113 49.4892348,40.8469579 C49.4892348,39.9666551 49.826939,38.9837115 50.3998114,38.4107205 C50.8129166,38.001117 51.3384833,37.7656365 51.9110355,37.7656365 C52.5589088,37.7656365 53.1410663,38.0727736 53.3663891,38.6561509 L53.4603604,37.909037 L55,37.909037 Z M52.727961,41.2666858 C53.0096346,41.0107818 53.1786067,40.5909666 53.1786067,40.1814504 C53.1786067,39.6390073 52.878363,39.2806369 52.3147757,39.2806369 C51.9769915,39.2806369 51.6858727,39.4240374 51.4796002,39.649219 C51.2257818,39.9052103 51.1131604,40.3250255 51.1131604,40.6523242 C51.1131604,41.1848175 51.3854689,41.5533123 51.9488161,41.5533123 C52.2399348,41.5533123 52.5213683,41.4407215 52.727961,41.2666858 Z M49.3393931,39.3113594 C49.3393931,38.3184659 48.8043813,37.7656365 47.9219801,37.7656365 C47.2271212,37.7656365 46.6733792,38.1034961 46.3445599,38.6153913 L46.4386112,37.909037 L44.8989716,37.909037 L44.2229229,43.1502684 L45.800183,43.1502684 L46.1757478,40.2633187 C46.2509088,39.6390073 46.5792479,39.3216584 47.1050546,39.3216584 C47.5182399,39.3216584 47.6872121,39.5162048 47.6872121,39.9052103 C47.6872121,39.9768669 47.677847,40.0585606 47.6684819,40.1406908 L47.2834719,43.1502684 L48.8607321,43.1502684 L49.3113778,39.6902404 C49.3299479,39.5571389 49.3393931,39.4240374 49.3393931,39.3113594 Z M42.9987353,37.909037 L42.3226866,43.1502684 L43.8999468,43.1502684 L44.5759954,37.909037 L42.9987353,37.909037 Z M41.0082098,43.2218377 C41.4025048,43.2218377 41.731004,43.1706045 42.0314078,43.0784372 L42.2191902,41.6146699 C42.0032324,41.6657285 41.7779096,41.6863265 41.6090975,41.6863265 C41.1678168,41.6863265 41.02694,41.5634367 41.0832908,41.1436215 L41.2990084,39.4240374 L42.4821336,39.4240374 L42.6792811,37.909037 L41.4961559,37.909037 L41.6933835,36.3735257 L40.1162034,36.3735257 L40.0285556,37.0562273 C39.922978,37.5955284 39.457284,37.897516 39.1207005,37.909037 L39.0929253,37.909037 L38.8957778,39.4240374 L39.7219884,39.4240374 L39.459125,41.4405469 C39.2901529,42.7098551 39.7408787,43.2218377 41.0082098,43.2218377 Z M38.3193835,41.6146699 C38.1034257,41.6658157 37.8780228,41.6863265 37.7090507,41.6863265 C37.2679301,41.6863265 37.1270533,41.563524 37.183404,41.1437088 L37.3992017,39.4238629 L38.5822469,39.4238629 L38.7794744,37.9088624 L37.5963492,37.9088624 L37.7934967,36.3733512 L36.2162366,36.3733512 L36.1373936,36.9876255 C36.061112,37.5715265 35.5653216,37.8970796 35.2144103,37.9088624 L35.1930386,37.9088624 L34.9958911,39.4238629 L35.8219416,39.4238629 L35.5592383,41.4405469 C35.390026,42.7099424 35.8406718,43.221925 37.1083231,43.221925 C37.5026981,43.221925 37.8310372,43.1706918 38.1315211,43.0785245 L38.3193835,41.6146699 Z M32.6238776,37.7656365 C33.9288292,37.7656365 34.7548797,38.6254285 34.7548797,40.017801 C34.7548797,40.2735305 34.6891638,40.7957247 34.6236881,41.0312053 L31.3659916,41.0312053 C31.4128972,41.6148444 31.7319512,41.8605367 32.3328388,41.8605367 C32.7929297,41.8605367 33.2248453,41.7066626 33.5532644,41.3997873 L34.2760585,42.423316 C33.7879524,42.9762327 33.0839685,43.2936689 32.1920421,43.2936689 C30.7368485,43.2936689 29.8169068,42.423316 29.8169068,41.0106945 C29.8169068,40.017801 30.1640561,39.014434 30.8589151,38.4106332 C31.3281309,38.001117 31.9384638,37.7656365 32.6238776,37.7656365 Z M33.2248453,39.9870786 C33.2342104,39.9256337 33.2342104,39.8949113 33.2342104,39.8642761 C33.2342104,39.4239502 33.0371429,39.1884696 32.5394315,39.1884696 C32.1920421,39.1884696 31.9197336,39.3113594 31.722506,39.5570517 C31.6288549,39.6697297 31.5534538,39.8233419 31.4971831,39.9870786 L33.2248453,39.9870786 Z M29.6932394,37.6018998 C29.6932394,38.277619 29.3929956,38.9019305 28.867269,39.2397901 C28.6982168,39.3421691 28.5104344,39.4343364 28.3038417,39.4855696 C29.0735414,39.6596053 29.4960919,40.1405162 29.4960919,40.9187018 C29.4960919,41.6350933 29.2052132,42.3108125 28.6794065,42.6999053 C28.2850314,42.9965689 27.778195,43.1500938 27.1773874,43.1500938 L23.7507988,43.1500938 L24.6707404,35.9845202 L27.7877202,35.9845202 C28.9892555,35.9845202 29.6932394,36.629517 29.6932394,37.6018998 Z M27.5998578,41.4511078 C27.778195,41.2974955 27.8343857,41.020819 27.8343857,40.8060237 C27.8343857,40.42723 27.5904927,40.253107 26.9613496,40.253107 L25.7409241,40.253107 L25.5531416,41.6555167 L26.7831724,41.6555167 C27.1867525,41.6555167 27.4400106,41.5941591 27.5998578,41.4511078 Z M27.7500997,38.5844943 C27.9188317,38.4411811 27.9754226,38.1852771 27.9754226,37.9909053 C27.9754226,37.6326222 27.7500997,37.47901 27.0928613,37.47901 L26.0977586,37.47901 L25.9287065,38.7790407 L26.9238091,38.7790407 C27.3275493,38.7790407 27.5904927,38.7176831 27.7500997,38.5844943 Z M21.3312393,39.290936 C21.4251305,39.2089803 21.5753724,39.1782579 21.7819651,39.1782579 C22.1763402,39.1782579 22.6173807,39.3216584 23.1056469,39.6901532 L23.9035221,38.5230494 C23.509147,38.0727736 22.7394472,37.7656365 21.8852214,37.7656365 C21.1998076,37.7656365 20.6554308,37.9498838 20.279866,38.2775317 C19.885731,38.6153913 19.6415979,39.1782579 19.6415979,39.7208756 C19.6415979,40.3147265 19.9793821,40.7957247 20.8432132,41.0312053 L21.6317232,41.2461751 C21.9131566,41.3178317 22.0354633,41.4202108 22.0354633,41.573823 C22.0354633,41.6759402 21.9791126,41.7478586 21.8945865,41.79883 C21.7819651,41.8707484 21.6129129,41.8912591 21.4439408,41.8912591 C20.8713885,41.8912591 20.2894712,41.6250561 19.9323965,41.2768975 L19.1439665,42.4541257 C19.5756419,42.9864444 20.4301079,43.2936689 21.3406845,43.2936689 C22.0448284,43.2936689 22.5892053,43.1196332 22.9835804,42.802197 C23.4061308,42.4643374 23.6596291,41.8809601 23.6596291,41.30762 C23.6596291,40.7035574 23.3216047,40.2328581 22.4204733,39.9871659 L21.6317232,39.7721088 C21.3500496,39.7004522 21.2375882,39.6082848 21.2375882,39.4854823 C21.2375882,39.4035267 21.2751287,39.3420818 21.3312393,39.290936 Z M17.9533172,41.1437088 L18.169275,39.4239502 L19.35216,39.4239502 L19.5493876,37.9089497 L18.3665025,37.9089497 L18.5634099,36.3733512 L16.98647,36.3733512 L16.9127498,36.9470404 C16.9105886,36.9580377 16.9066664,36.965631 16.9052256,36.977501 C16.8335866,37.5682098 16.3329135,37.8970796 15.979841,37.9089497 L15.9629518,37.9089497 L15.9629518,37.9109571 C15.9618312,37.9109571 15.9603904,37.9112189 15.9594299,37.9112189 L15.9623114,37.9147974 L15.7660444,39.4239502 L16.5920949,39.4239502 L16.3291515,41.4406342 C16.1601794,42.7099424 16.610585,43.221925 17.8782363,43.221925 C18.2723712,43.221925 18.6011905,43.1707791 18.9014342,43.0785245 L19.0892967,41.6147571 C18.8732589,41.665903 18.647936,41.6864137 18.4789639,41.6864137 C18.0376032,41.6864137 17.8970465,41.563524 17.9533172,41.1437088 Z M13.7801614,38.7074714 L13.8832577,37.9088624 L12.3437781,37.9088624 L11.6677295,43.1501811 L13.2449096,43.1501811 L13.5642037,40.6833085 C13.6768251,39.7925322 14.0334996,39.4648843 14.7470887,39.4648843 C14.9817767,39.4648843 15.1977345,39.4855696 15.4322624,39.5263292 L15.6482202,37.8679282 C15.5261536,37.8272559 15.4043272,37.8064833 15.2538451,37.8064833 C14.6437524,37.8064833 14.0991354,38.1443429 13.7801614,38.7074714 Z M9.39545032,37.7656365 C10.8409586,37.7656365 11.7235999,38.7687417 11.7235999,40.1304791 C11.7235999,41.0721394 11.3010495,42.065033 10.6250809,42.6485848 C10.1464198,43.0581883 9.51751689,43.2936689 8.78511748,43.2936689 C7.33936907,43.2936689 6.44736263,42.2800901 6.44736263,40.9185272 C6.44736263,40.0997566 6.76681684,39.2089803 7.37690954,38.5846689 C7.87454092,38.0727736 8.56915972,37.7656365 9.39545032,37.7656365 Z M9.65807354,41.4714439 C9.97736766,41.1745185 10.1181644,40.6933457 10.1181644,40.2735305 C10.1181644,39.6799414 9.82712573,39.3011477 9.26377851,39.3011477 C8.92591427,39.3011477 8.62551045,39.4444609 8.41891778,39.6901532 C8.19375499,39.9564434 8.05271808,40.3861212 8.05271808,40.7957247 C8.05271808,41.3792766 8.34399693,41.7580704 8.90718405,41.7580704 C9.19830281,41.7580704 9.45156092,41.6556913 9.65807354,41.4714439 Z M4.34205453,37.7656365 C5.44041351,37.7656365 6.19162317,38.6973469 6.19162317,40.0584734 C6.19162317,41.0721394 5.81597831,42.1366896 5.13056453,42.7509639 C4.7364296,43.0987734 4.25760848,43.2936689 3.74116685,43.2936689 C3.11226389,43.2936689 2.58645715,42.9967434 2.34232401,42.4541257 L1.9951747,45.197413 L0.417914569,45.197413 L1.3566665,37.9089497 L2.89630612,37.9089497 L2.80241492,38.6153913 C3.121629,38.0625619 3.71299148,37.7656365 4.34205453,37.7656365 Z M4.12609676,41.4304225 C4.4357056,41.1335843 4.58618767,40.683134 4.58618767,40.2225591 C4.58618767,39.649219 4.32332432,39.3011477 3.76958235,39.3011477 C3.40338264,39.3011477 3.09345363,39.4546726 2.87749586,39.7208756 C2.62423775,40.0280128 2.52074131,40.458127 2.52074131,40.8365716 C2.52074131,41.409999 2.78360466,41.7580704 3.33766681,41.7580704 C3.63791054,41.7580704 3.91958415,41.6352679 4.12609676,41.4304225 Z M-0.869267374,38.9019305 C0.154010654,39.1783452 0.66132731,39.8333791 0.66132731,40.7036447 C0.66132731,41.5531377 0.29512761,42.3211115 -0.352745697,42.7713 C-0.822281751,43.1092469 -1.44173956,43.2934943 -2.21175948,43.2934943 C-3.56361669,43.2934943 -4.57744957,42.6996434 -5,41.7272606 L-3.81711493,40.7650896 C-3.46964545,41.3487287 -2.86899789,41.6965382 -2.08961287,41.6965382 C-1.74222343,41.6965382 -1.47960021,41.6248816 -1.29173776,41.5020791 C-1.11308033,41.3688903 -1.01006415,41.1437088 -1.01006415,40.9801467 C-1.01006415,40.7344544 -1.18824132,40.5398207 -1.73285832,40.3965948 L-2.76550145,40.1200928 C-3.82648004,39.8333791 -4.38022201,39.1579217 -4.38022201,38.2674073 C-4.38022201,37.489309 -4.0237076,36.7726557 -3.42273987,36.3531023 C-2.96264896,36.0254544 -2.34295102,35.841207 -1.58261639,35.841207 C-0.390366213,35.841207 0.520210355,36.3121681 0.961491,37.1514494 L-0.268299646,38.1446048 C-0.578148617,37.6633447 -1.04760463,37.4278641 -1.67650759,37.4278641 C-2.04270729,37.4278641 -2.31477566,37.5097325 -2.48398793,37.6326222 C-2.61525952,37.7350013 -2.6999457,37.8678409 -2.6999457,38.0319267 C-2.6999457,38.2674073 -2.53073343,38.4514801 -1.93000583,38.615304 L-0.869267374,38.9019305 Z" id="Fill-1" fill="#FFFFFF" transform="translate(25.000000, 41.000000) rotate(-90.000000) translate(-25.000000, -41.000000) "></path>
    </g>
</svg>