<?xml version="1.0" encoding="UTF-8"?>
<svg width="50px" height="81px" viewBox="0 0 50 81" version="1.1" xmlns="http://www.w3.org/2000/svg" xmlns:xlink="http://www.w3.org/1999/xlink">
    <!-- Generator: Sketch 46.1 (44463) - http://www.bohemiancoding.com/sketch -->
    <title>bookieheader/sportsbet</title>
    <desc>Created with Sketch.</desc>
    <defs>
        <polygon id="path-1" points="22.6555825 10.93007 22.6555825 0.15508322 0.320607082 0.15508322 0.320607082 10.93007 22.6555825 10.93007"></polygon>
        <polygon id="path-3" points="40.5405854 12.2112772 0 12.2112772 0 0.219986158 40.5405854 0.219986158"></polygon>
    </defs>
    <g id="Symbols" stroke="none" stroke-width="1" fill="none" fill-rule="evenodd">
        <g id="bookieheader/sportsbet">
            <g id="Group-5" fill="#30A5DD">
                <rect id="Rectangle" x="0" y="0" width="50" height="81"></rect>
            </g>
            <g id="sportsbet-light" transform="translate(24.500000, 40.500000) rotate(-90.000000) translate(-24.500000, -40.500000) translate(-7.000000, 33.000000)">
                <g id="Group-3" transform="translate(39.076087, 0.455664)">
                    <mask id="mask-2" fill="white">
                        <use xlink:href="#path-1"></use>
                    </mask>
                    <g id="Clip-2"></g>
                    <path d="M21.6500449,8.71067035 C21.6305069,8.71189147 21.6115794,8.71494429 21.5920414,8.71921824 C21.560292,8.72410275 21.5297638,8.72959783 21.4992356,8.73265065 C21.4705391,8.73631403 21.4424532,8.74058798 21.4131461,8.74608305 C21.388113,8.74974643 21.3624693,8.75402038 21.3374362,8.75402038 C21.28737,8.76134715 21.2391354,8.76806335 21.1909009,8.77355842 C21.1750262,8.77477955 21.1591516,8.77477955 21.1438875,8.77539012 C21.1060325,8.7790535 21.0706198,8.78271688 21.0382599,8.7857697 C21.0236064,8.78638026 21.0077317,8.78821196 20.9955205,8.78882252 C20.9503387,8.79309647 20.9063781,8.79553872 20.8697443,8.79553872 C20.3275636,8.79553872 19.9563408,8.57939912 19.9563408,8.11964453 C19.9563408,7.89495703 20.0277767,7.60921315 20.1004338,7.35033407 L20.6267399,5.43804806 L22.1256742,5.43804806 L22.6556436,3.44150425 L21.1548776,3.44150425 L21.69889,1.44129704 L18.6430179,2.64044446 L18.4299311,3.44150425 L16.8577292,5.43804806 L17.8999617,5.43804806 L17.2014766,7.97982541 C17.1587372,8.17947979 17.0732582,8.57939912 17.0732582,8.84865778 C17.0732582,9.8805107 17.8730969,10.7066036 19.2138951,10.7066036 C19.6705969,10.7066036 20.0570838,10.60525 20.3855672,10.5197711 L22.1555918,8.61114844 L21.871069,8.66854144 C21.803907,8.6844161 21.726976,8.69540625 21.6500449,8.71067035 M5.91764597,7.95173947 C5.77111065,8.22344039 5.5793936,8.49819412 5.35959061,8.67892103 C5.09033195,8.9023874 4.74963731,9.05686005 4.43214411,9.05686005 C4.23554254,9.05686005 3.93636625,8.99458254 3.74159638,8.71067035 L4.69834995,5.12543937 C4.832674,5.07964708 5.09582702,5.00576885 5.41332023,5.00576885 C7.03131445,5.00576885 6.24918215,7.33384885 5.91764597,7.95173947 M6.53248378,3.04158492 C6.16858772,3.04158492 5.75767824,3.07089198 5.23564614,3.17651953 L6.04342213,0.154838995 L3.17255087,0.154838995 L0.320607082,10.7499536 L3.18903609,10.7499536 L3.63841109,9.10021009 L4.30697852,10.7499536 C4.47305189,10.8378748 4.64828371,10.93007 5.0707939,10.93007 C6.37007379,10.93007 7.79696153,9.96354738 8.68960589,8.30037143 C9.55904883,6.68359834 10.3991847,3.04158492 6.53248378,3.04158492 M14.3190047,5.70730673 C14.3165624,5.72684477 14.3135096,5.74577225 14.3092356,5.76531029 L12.5215047,5.76408916 C12.8530408,5.20725493 13.2407489,4.93677514 13.7059986,4.93677514 L13.7066091,4.93677514 C13.9337389,4.93677514 14.0949277,5.00088434 14.2011658,5.13276613 C14.3141202,5.27319582 14.3513646,5.46002836 14.3190047,5.70730673 M13.9361811,3.02876308 C12.8713578,3.02876308 11.8999507,3.43173522 11.0494352,4.22302599 C10.2019726,5.01309562 9.69581513,5.98389215 9.54378473,7.10977191 C9.39419659,8.21489249 9.60606225,9.11547418 10.1738866,9.79014725 C10.741711,10.4654309 11.5800152,10.8091783 12.6668189,10.8103995 L12.6710928,10.8103995 C13.3823997,10.8103995 14.2170405,10.6339465 15.1548666,10.2865357 L15.2568308,10.2505124 L16.047511,7.90106267 L15.5749345,8.09461141 C14.431959,8.56169276 13.5918231,8.79614929 13.0710121,8.79614929 C12.648502,8.79614929 12.3450517,8.66670975 12.1466185,8.39745109 C11.9695549,8.16177344 11.9127725,7.8430591 11.9713866,7.44252921 L16.3479084,7.44741372 L16.4022486,7.29355163 C16.5249719,6.93820346 16.6086191,6.59323488 16.6531903,6.2702466 C16.7820193,5.31471416 16.5970184,4.52952904 16.1055145,3.93361872 C15.6097367,3.33526613 14.8788917,3.02998421 13.9361811,3.02876308" id="Fill-1" fill="#F9D804" mask="url(#mask-2)"></path>
                </g>
                <g id="Group-6" transform="translate(0.000000, 1.676792)">
                    <mask id="mask-4" fill="white">
                        <use xlink:href="#path-3"></use>
                    </mask>
                    <g id="Clip-5"></g>
                    <path d="M28.3775428,2.09075382 C28.00632,2.09075382 27.7498832,2.16218979 27.5215323,2.23179407 L25.9664261,3.80155375 L26.3944314,2.22019336 L23.6102602,2.22019336 L21.7266707,9.27037424 L24.4949672,9.27037424 L25.8382077,4.2619189 C26.0525156,4.17460827 26.3089524,4.09035046 26.6813964,4.09035046 C26.8938726,4.09035046 27.2229665,4.1166047 27.6070112,4.27351962 C28.0783665,4.44386693 28.3219815,4.65817485 28.5210253,4.83096442 L29.206078,2.26110114 C29.0345095,2.1890546 28.7933368,2.09075382 28.3775428,2.09075382 M38.1978519,5.11609774 C37.7002424,4.84622852 37.4554063,4.70213544 37.4554063,4.37487322 C37.4554063,3.96030036 37.8431143,3.77346782 38.3144696,3.77346782 C39.1985661,3.77346782 39.8408792,4.31564852 40.0417548,4.48721697 L40.5405854,2.6164493 C39.7419679,2.2043187 38.8535975,2.00527488 37.9572897,2.00527488 C37.1287546,2.00527488 36.3704343,2.17501163 35.8148212,2.56149856 C35.1987622,2.98950382 34.8018957,3.70325297 34.8018957,4.50248106 C34.8018957,5.50136354 35.44543,5.88785046 36.1152186,6.27250569 C36.8014924,6.64311795 37.0151897,6.7707258 37.0151897,7.10043028 C37.0151897,7.51439258 36.6415246,7.70305681 36.2300046,7.70305681 C35.5138132,7.70305681 34.7585457,7.23048038 34.1302755,6.83056106 L33.9605387,7.44784112 C33.8939873,7.46310521 33.8164457,7.47470593 33.7407357,7.48935946 C33.7211977,7.49058059 33.7028808,7.49424397 33.6827322,7.49790735 C33.6503723,7.50279186 33.6198441,7.5088975 33.5899265,7.51133976 C33.5600088,7.51500314 33.5337546,7.51988765 33.503837,7.52477216 C33.4781933,7.52843555 33.451939,7.53270949 33.4287376,7.53270949 C33.3786714,7.54003626 33.3286051,7.54736303 33.2803706,7.5528581 C33.2644959,7.55346867 33.2498424,7.55346867 33.2345783,7.55407923 C33.1948916,7.55835318 33.1607001,7.56201656 33.1295613,7.56506938 C33.1124655,7.56567994 33.097812,7.56690107 33.0862113,7.56751163 C33.040419,7.57178558 32.9964584,7.57422784 32.9610457,7.57422784 C32.4170333,7.57422784 32.046421,7.35808823 32.046421,6.89833364 C32.046421,6.67364614 32.1184676,6.38851282 32.1911247,6.12902318 L32.7168201,4.21734774 L34.2157544,4.21734774 L34.746945,2.22019336 L33.2449579,2.22019336 L33.7901914,0.219986158 L30.7330982,1.41913358 L30.5200114,2.22019336 L28.9478094,4.21734774 L29.9906525,4.21734774 L29.2909463,6.75912508 C29.2488174,6.9581689 29.163949,7.35808823 29.163949,7.62734689 C29.163949,8.65919981 29.9625666,9.48529271 31.3027542,9.48529271 C31.7612877,9.48529271 32.1471641,9.38332855 32.4744263,9.29846017 L33.8689541,7.7928097 L33.6027483,8.76910131 C34.4715807,9.21237067 35.5992921,9.46819693 36.4565238,9.46819693 C38.3578196,9.46819693 39.6687002,8.38383551 39.6687002,6.98503371 C39.6687002,5.94341177 38.939687,5.5306706 38.1978519,5.11609774 M18.015053,7.68657159 C17.7293091,7.68657159 17.4740934,7.55713205 17.3306109,7.38495304 C17.1309565,7.15660216 17.0869959,6.84460403 17.0869959,6.54359604 C17.0869959,5.81519336 17.4869153,3.80155375 18.6988845,3.80155375 C19.0438531,3.80155375 19.6281627,3.97556445 19.6281627,4.97383636 C19.6281627,5.61553898 19.2422863,7.68657159 18.015053,7.68657159 M18.6988845,2.00527488 C15.973938,2.00527488 14.3889142,4.13125824 14.3889142,6.23098735 C14.3889142,8.33010589 15.9018915,9.46819693 18.0577925,9.46819693 C21.2150182,9.46819693 22.3402874,6.9581689 22.3402874,5.32918453 C22.3402874,3.50420915 21.0117004,2.00527488 18.6988845,2.00527488 M6.06570771,6.98503371 C6.06570771,5.94341177 5.33730503,5.5306706 4.5960805,5.11609774 C4.0960287,4.84622852 3.85302429,4.70213544 3.85302429,4.37487322 C3.85302429,3.96030036 4.24012177,3.77346782 4.70964538,3.77346782 C5.59557354,3.77346782 6.23727615,4.31564852 6.43693054,4.48721697 L6.9375929,2.6164493 C6.13775425,2.2043187 5.25182609,2.00527488 4.35246552,2.00527488 C3.52515149,2.00527488 2.76805231,2.17501163 2.2124392,2.56149856 C1.59638026,2.98950382 1.19829263,3.70325297 1.19829263,4.50248106 C1.19829263,5.50136354 1.84121637,5.88785046 2.51222605,6.27250569 C3.1972787,6.64311795 3.41097605,6.7707258 3.41097605,7.10043028 C3.41097605,7.51439258 3.03914266,7.70305681 2.62579093,7.70305681 C1.91204178,7.70305681 1.1549426,7.23048038 0.526672385,6.83056106 L0.35815676,7.44784112 L0.264740489,7.7928097 L-0.000244225543,8.76910131 C0.869809273,9.21237067 1.99691016,9.46819693 2.85414181,9.46819693 C4.75360598,9.46819693 6.06570771,8.38383551 6.06570771,6.98503371 M9.53798437,7.62734689 C9.23880808,7.62734689 9.0257213,7.55713205 8.92314657,7.51439258 L9.83838179,4.13125824 C10.1662546,3.85955732 10.480695,3.80155375 10.6675275,3.80155375 C10.9660932,3.80155375 11.2097082,3.94625739 11.3501379,4.15873361 C11.4649239,4.33091262 11.5082739,4.58796 11.5082739,4.84622852 C11.5082739,5.43114869 11.0662257,7.62734689 9.53798437,7.62734689 M12.2220231,2.03213969 C11.8227143,2.03213969 11.6084064,2.12006089 11.4081415,2.2043187 L9.93912483,3.76125654 L10.3512554,2.2043187 L7.6403519,2.2043187 L4.95631318,12.2114603 L7.6690484,12.2114603 L8.44019056,9.3570743 C8.88101766,9.45537508 9.25285105,9.48529271 9.59598794,9.48529271 C13.2496021,9.48529271 14.305267,6.04476537 14.305267,4.51774516 C14.305267,2.94615379 13.449867,2.03213969 12.2220231,2.03213969" id="Fill-4" fill="#FFFFFF" mask="url(#mask-4)"></path>
                </g>
            </g>
        </g>
    </g>
</svg>