<?xml version="1.0" encoding="UTF-8"?>
<svg width="50px" height="81px" viewBox="0 0 50 81" version="1.1" xmlns="http://www.w3.org/2000/svg" xmlns:xlink="http://www.w3.org/1999/xlink">
    <!-- Generator: Sketch 46.1 (44463) - http://www.bohemiancoding.com/sketch -->
    <title>bookieheader/betstar</title>
    <desc>Created with Sketch.</desc>
    <defs>
        <linearGradient x1="0%" y1="49.9872308%" x2="100%" y2="49.9872308%" id="linearGradient-1">
            <stop stop-color="#F37021" offset="0%"></stop>
            <stop stop-color="#F7941E" offset="100%"></stop>
        </linearGradient>
    </defs>
    <g id="Symbols" stroke="none" stroke-width="1" fill="none" fill-rule="evenodd">
        <g id="bookieheader/betstar">
            <g id="Group-5" fill="#05509E">
                <rect id="Rectangle" x="0" y="0" width="50" height="81"></rect>
            </g>
            <g id="betstar-light" transform="translate(24.500000, 42.000000) rotate(-90.000000) translate(-24.500000, -42.000000) translate(-8.000000, 32.000000)">
                <path d="M32.2166667,15.9864407 C32.7316667,15.9864407 33.1933333,15.8169492 33.7366667,15.4084746 L34.9033333,16.8067797 C34.0973279,17.52683 33.0559904,17.9148835 31.9833333,17.8949153 C29.87,17.8949153 28.575,16.6322034 28.575,14.6745763 C28.575,12.5254237 30.2266667,10.2949153 32.8683333,10.2949153 C34.9833333,10.2949153 35.9066667,11.7322034 35.9066667,13.3050847 C35.9001689,13.8148113 35.8065519,14.3195057 35.63,14.7966102 L30.8833333,14.7966102 C30.9366667,15.5220339 31.3583333,15.9915254 32.2166667,15.9915254 L32.2166667,15.9864407 Z M33.6033333,13.4932203 C33.6452413,13.3676173 33.6671835,13.2360212 33.6683333,13.1033898 C33.6683333,12.6067797 33.3516667,12.1762712 32.6916667,12.1762712 C32.0316667,12.1762712 31.3583333,12.6186441 31.0533333,13.4915254 L33.6033333,13.4915254 L33.6033333,13.4932203 Z" id="Shape" fill="#FFFFFF"></path>
                <path d="M36.2716667,16.1474576 C36.279989,15.8259013 36.3241604,15.5063434 36.4033333,15.1949153 L37.1166667,12.5067797 L36.2716667,12.5067797 L36.8133333,10.4559322 L37.66,10.4559322 L38.1483333,8.61525424 L40.6583333,8.61525424 L40.1683333,10.4559322 L41.835,10.4559322 L41.2916667,12.5067797 L39.625,12.5067797 L39.0166667,14.7915254 C38.9804352,14.9363867 38.9586584,15.0845938 38.9516667,15.2338983 C38.9516667,15.5288136 39.1183333,15.6915254 39.5183333,15.6915254 C39.8445295,15.6798481 40.1663729,15.611637 40.47,15.4898305 L39.915,17.6118644 C39.4391443,17.7804761 38.9389129,17.8669797 38.435,17.8677966 C36.9816667,17.8677966 36.2683333,17.2220339 36.2683333,16.1474576" id="Shape" fill="#FFFFFF"></path>
                <path d="M41.2083333,16.6576271 L41.875,15.979661 C42.5022648,16.6282736 43.3587671,16.9945045 44.2533333,16.9966102 C45.0333333,16.9966102 45.7533333,16.540678 45.7533333,15.8423729 C45.7533333,15.3847458 45.45,15.0491525 44.4583333,14.6559322 C43.23,14.1728814 42.53,13.7152542 42.53,12.7474576 C42.53,11.5610169 43.53,10.6118644 45.1183333,10.6118644 C46.0417337,10.628569 46.9318886,10.9651948 47.6416667,11.5661017 L47.0466667,12.2779661 C46.4829972,11.7835033 45.7705678,11.4989619 45.0266667,11.4711864 C44.0616667,11.4711864 43.5466667,11.9949153 43.5466667,12.5728814 C43.5466667,13.0305085 43.8233333,13.3254237 44.9083333,13.759322 C46.1366667,14.2677966 46.77,14.7661017 46.77,15.6677966 C46.77,16.9576271 45.6033333,17.8576271 44.155,17.8576271 C43.0559688,17.8664614 41.9975961,17.4354499 41.2083333,16.6576271" id="Shape" fill="#FFFFFF"></path>
                <path d="M48.185,16.4694915 C48.1883971,16.224825 48.2197179,15.981387 48.2783333,15.7440678 L49.3483333,11.6864407 L48.4083333,11.6864407 L48.6466667,10.7728814 L49.5983333,10.7728814 L50.1516667,8.67627119 L51.1516667,8.67627119 L50.5966667,10.7728814 L52.75,10.7728814 L52.5133333,11.6864407 L50.365,11.6864407 L49.3083333,15.6898305 C49.2779921,15.8577147 49.2601636,16.0276897 49.255,16.1983051 C49.255,16.6813559 49.61,16.9101695 50.1916667,16.9101695 C50.5326893,16.9033287 50.8692835,16.8302665 51.1833333,16.6949153 L50.9316667,17.6355932 C50.5878185,17.777108 50.2191796,17.8457411 49.8483333,17.8372881 C48.8716667,17.8372881 48.1816667,17.3661017 48.1816667,16.4661017" id="Shape" fill="#FFFFFF"></path>
                <path d="M52.2,15.9457627 C52.2,14.3864407 53.4816667,13.4338983 55.2383333,13.4338983 C56.0570404,13.4460798 56.870212,13.5726894 57.655,13.8101695 L57.7083333,13.640678 C57.7545789,13.43356 57.781366,13.2224415 57.7883333,13.0101695 C57.7883333,12.1220339 57.18,11.6118644 55.955,11.6118644 C55.2957231,11.6107547 54.6419369,11.7337293 54.0266667,11.9745763 L53.8416667,11.1016949 C54.5653394,10.811456 55.3371036,10.6653045 56.115,10.6711864 C57.8316667,10.6711864 58.7966667,11.4915254 58.7966667,12.8338983 C58.7887945,13.1561622 58.7440487,13.4763978 58.6633333,13.7881356 L57.6333333,17.7254237 L56.6333333,17.7254237 L56.9116667,16.6372881 C56.28929,17.4203105 55.3517206,17.8746063 54.3616667,17.8728814 C53.2133333,17.8728814 52.2083333,17.1949153 52.2083333,15.9508475 M57.36,14.9966102 L57.4916667,14.5135593 C56.7723026,14.3142279 56.0305705,14.2105396 55.285,14.2050847 C54.0816667,14.2050847 53.25,14.8830508 53.25,15.8305085 C53.25,16.5694915 53.805,17.0525424 54.69,17.0525424 C55.9233212,17.0280473 57.0004286,16.1976249 57.3566667,14.9966102" id="Shape" fill="#FFFFFF"></path>
                <path d="M61.0766667,10.7728814 L62.0933333,10.7728814 L61.63,12.5864407 C62.4633333,11.3779661 63.5183333,10.5711864 64.8783333,10.6508475 L64.5883333,11.7661017 L64.5233333,11.7661017 C63.0233333,11.7661017 61.5366667,12.8813559 60.995,14.9779661 L60.2683333,17.7186441 L59.2516667,17.7186441 L61.0766667,10.7728814 Z" id="Shape" fill="#FFFFFF"></path>
                <path d="M22.3383333,16.7271186 L22.0733333,17.7220339 L19.56,17.7220339 L22.1666667,7.75762712 C24.0683333,7.53389831 24.7083333,7.67457627 24.7083333,7.67457627 L23.7783333,11.2118644 C24.3483333,10.6423729 25.0416667,10.2864407 25.8166667,10.2864407 C27.2316667,10.2864407 28.3566667,11.3898305 28.3566667,13.2728814 C28.3566667,15.8830508 26.5583333,17.8881356 24.5066667,17.8881356 C23.435,17.879661 22.7733333,17.4050847 22.3383333,16.7271186 L22.3383333,16.7271186 Z M25.8166667,13.6762712 C25.8166667,12.8966102 25.3283333,12.3983051 24.6,12.3983051 C23.635,12.3983051 22.8266667,13.3677966 22.8266667,14.4694915 C22.8266667,15.2491525 23.3433333,15.7610169 24.07,15.7610169 C25.01,15.7542373 25.8166667,14.8271186 25.8166667,13.6762712 L25.8166667,13.6762712 Z" id="Shape" fill="#FFFFFF"></path>
                <path d="M0.526666667,19.9 C0.526666667,19.9 8.425,11.6067797 20.6633333,9.73050847 L19.7683333,13.0949153 C19.7683333,13.0949153 9.07833333,13.6525424 0.526666667,19.9 L0.526666667,19.9 Z M31.2183333,4.69322034 L22.0416667,4.69322034 L23.2533333,0.00508474576 C23.2533333,0.00508474576 19.7783333,1.44237288 15.3433333,4.74067797 L1.135,4.76101695 L10.9883333,8.28983051 C10.9883333,8.28983051 8.76833333,9.65762712 0,19.9152542 C14.5666667,6.33050847 31.2183333,4.69322034 31.2183333,4.69322034 L31.2183333,4.69322034 Z" id="Shape" fill="url(#linearGradient-1)"></path>
            </g>
        </g>
    </g>
</svg>