<?xml version="1.0" encoding="UTF-8"?>
<svg width="50px" height="81px" viewBox="0 0 50 81" version="1.1" xmlns="http://www.w3.org/2000/svg" xmlns:xlink="http://www.w3.org/1999/xlink">
    <!-- Generator: Sketch 46.1 (44463) - http://www.bohemiancoding.com/sketch -->
    <title>bookieheader/bookmaker</title>
    <desc>Created with Sketch.</desc>
    <defs>
        <polygon id="path-1" points="6.95061961 0.0942111442 0 0.0942111442 0 9.78219788 6.95061961 9.78219788 6.95061961 0.0942111442"></polygon>
        <polygon id="path-3" points="0.0361202614 7.66798942 6.25931634 7.66798942 6.25931634 0.0139477017 0.0361202614 0.0139477017 0.0361202614 7.66798942"></polygon>
        <polygon id="path-5" points="0.180054902 7.66798942 6.9623817 7.66798942 6.9623817 0.0138688575 0.180054902 0.0138688575"></polygon>
        <polygon id="path-7" points="4.16605229 7.54601737 4.16605229 0.198522082 0.0394777778 0.198522082 0.0394777778 7.54601737 4.16605229 7.54601737"></polygon>
    </defs>
    <g id="Symbols" stroke="none" stroke-width="1" fill="none" fill-rule="evenodd">
        <g id="bookieheader/bookmaker">
            <g id="Group-5" fill="#000000">
                <rect id="Rectangle" x="0" y="0" width="50" height="81"></rect>
            </g>
            <g id="bookmaker" transform="translate(24.500000, 40.500000) rotate(-90.000000) translate(-24.500000, -40.500000) translate(-9.000000, 35.000000)">
                <g id="Group-3" transform="translate(0.000000, 0.045241)">
                    <mask id="mask-2" fill="white">
                        <use xlink:href="#path-1"></use>
                    </mask>
                    <g id="Clip-2"></g>
                    <path d="M3.48907059,3.73405576 C2.95841046,3.73405576 2.54558693,3.92643572 2.2600902,4.3048881 C1.97696601,4.69989778 1.83461307,5.2407693 1.83461307,5.91409917 C1.83461307,6.69859941 1.96826667,7.27731618 2.23241046,7.63448061 C2.51632549,8.03106717 2.92124052,8.23290844 3.43371111,8.23290844 C3.96437124,8.23290844 4.37798562,8.03106717 4.6626915,7.63369217 C4.94502484,7.23947094 5.08816863,6.66075417 5.08816863,5.91409917 C5.08816863,5.2407693 4.94502484,4.70857064 4.6626915,4.33248359 C4.37798562,3.93589703 3.98335163,3.73405576 3.48907059,3.73405576 M3.60058039,9.78219788 C2.71641046,9.78219788 1.88522745,9.54960735 1.12996601,9.09073384 C0.380240523,8.6350141 -0.000158169935,7.74407412 -0.000158169935,6.44314406 L-0.000158169935,0.0938169229 L0.917227451,0.0938169229 C1.16713595,0.0938169229 1.38461961,0.184487806 1.56414248,0.362675802 C1.74287451,0.54165224 1.83461307,0.759262359 1.83461307,1.00841018 L1.83461307,3.23812545 C1.83461307,3.25310586 1.84410327,3.26650938 1.85912941,3.2704516 C1.86150196,3.27124004 1.86466536,3.27124004 1.86782876,3.27124004 C1.8796915,3.27124004 1.8907634,3.2649325 1.8970902,3.25468275 C2.09796601,2.90855651 2.39453464,2.62156345 2.77888758,2.40316489 C3.10788105,2.22103468 3.51595948,2.12878691 3.99205098,2.12878691 C4.85328627,2.12878691 5.56900523,2.48989356 6.11864575,3.20264554 C6.67065882,3.91776286 6.95061961,4.85837471 6.95061961,5.99767407 C6.95061961,7.13618498 6.67065882,8.07679683 6.11864575,8.79191415 C5.84501176,9.13804039 5.46935817,9.3927073 5.00196601,9.54724202 C4.53220131,9.70335363 4.0608549,9.78219788 3.60058039,9.78219788" id="Fill-1" fill="#F9D804" mask="url(#mask-2)"></path>
                </g>
                <path d="M10.7639386,3.98468616 C10.6287033,3.98468616 10.4918863,4.00518566 10.3574418,4.04539623 C10.0735268,4.13054802 9.86157908,4.24092996 9.72792549,4.37417674 C9.33091895,4.80860853 9.14902353,5.45907356 9.18698431,6.30901453 C9.22415425,7.15816706 9.38706928,7.75974866 9.67019346,8.09877892 C9.78407582,8.25015987 9.98653333,8.38104132 10.2712392,8.48511572 C10.4278275,8.54188358 10.5883699,8.57105595 10.7481216,8.57105595 C10.8786118,8.57105595 11.0122654,8.55213333 11.1451281,8.51349965 C11.440115,8.42834787 11.7058405,8.21231463 11.9328144,7.87249593 C12.1582065,7.53504256 12.2823699,6.98470972 12.3013503,6.23884315 C12.3013503,5.56551329 12.1914222,5.05302569 11.9747294,4.71478388 C11.7572458,4.37496518 11.5018013,4.15498973 11.2163046,4.05958819 C11.0660431,4.00991632 10.9142,3.98468616 10.7639386,3.98468616 M10.7536575,10.0761926 C10.4760693,10.0761926 10.1929451,10.0446549 9.91298431,9.98157951 C9.29691242,9.84439053 8.79867712,9.60785779 8.43251373,9.27907728 C8.04657908,8.94950833 7.7682,8.50009613 7.60291242,7.94266731 C7.43683399,7.38129628 7.35300392,6.78917599 7.35300392,6.1820753 C7.35300392,5.68535655 7.42338954,5.18233026 7.56178824,4.68561151 C7.69939608,4.19125809 7.91767059,3.77417202 8.21107582,3.44460308 C8.68795817,2.89584712 9.31114771,2.56706662 10.0640366,2.46614598 C10.3012915,2.43460828 10.5345922,2.41805099 10.7576118,2.41805099 C11.2439843,2.41805099 11.7010954,2.49531835 12.1170824,2.64591086 C12.8130301,2.9195004 13.3334092,3.40123874 13.6631935,4.07851081 C13.9771608,4.68482307 14.1353307,5.40151726 14.1353307,6.20967078 C14.1353307,6.79784886 14.070481,7.31033646 13.9415725,7.73373006 C13.8118732,8.15554678 13.6442131,8.51823031 13.4425464,8.81074246 C13.002834,9.41390094 12.4357948,9.79393021 11.7580366,9.93979206 C11.4250889,10.0304629 11.0881869,10.0761926 10.7536575,10.0761926" id="Fill-4" fill="#F9D804"></path>
                <path d="M17.9553719,3.98468616 C17.8201366,3.98468616 17.6833196,4.00518566 17.5488752,4.04539623 C17.2649601,4.13054802 17.0530124,4.24092996 16.9193588,4.37417674 C16.5223523,4.80860853 16.3404569,5.45907356 16.3784176,6.30901453 C16.4155876,7.15816706 16.5785026,7.75974866 16.8616268,8.09877892 C16.9755092,8.25015987 17.1779667,8.38104132 17.4626725,8.48511572 C17.6192608,8.54188358 17.7798033,8.57105595 17.9395549,8.57105595 C18.0700451,8.57105595 18.2036987,8.55213333 18.3365614,8.51349965 C18.6323392,8.42834787 18.8972739,8.21231463 19.1242477,7.87249593 C19.3496399,7.53425412 19.4738033,6.98470972 19.4927837,6.23884315 C19.4927837,5.56551329 19.3828556,5.05302569 19.1661627,4.71478388 C18.9486791,4.37496518 18.6932346,4.15498973 18.4077379,4.05958819 C18.2574765,4.00991632 18.1056333,3.98468616 17.9553719,3.98468616 M17.9458817,10.0761926 C17.6675026,10.0761926 17.3843784,10.0446549 17.1044176,9.98157951 C16.4883458,9.84439053 15.9901105,9.60785779 15.6239471,9.27907728 C15.2380124,8.94950833 14.9596333,8.50009613 14.7951366,7.94266731 C14.6282673,7.38208472 14.5444373,6.78917599 14.5444373,6.1820753 C14.5444373,5.68614499 14.6148229,5.1831187 14.7524307,4.68561151 C14.8908294,4.19046964 15.1098948,3.77338358 15.4025092,3.44460308 C15.8793915,2.89584712 16.502581,2.56706662 17.2554699,2.46614598 C17.4927248,2.43460828 17.7268163,2.41805099 17.9498359,2.41805099 C18.4346268,2.41805099 18.8925288,2.49531835 19.3085157,2.64591086 C20.0036725,2.9195004 20.5248425,3.40123874 20.8554176,4.07851081 C21.1685941,4.68482307 21.3275549,5.40151726 21.3275549,6.20967078 C21.3275549,6.79706042 21.2619144,7.30954802 21.1330059,7.73373006 C21.0040974,8.15554678 20.8364373,8.51823031 20.6339797,8.81074246 C20.1942673,9.41390094 19.6272281,9.79393021 18.9494699,9.93979206 C18.6165222,10.0304629 18.2796203,10.0761926 17.9458817,10.0761926" id="Fill-6" fill="#F9D804"></path>
                <path d="M26.3445471,9.93916131 L24.9842856,7.44847158 C24.7320046,6.99511716 24.5113575,6.77514172 24.3089,6.77514172 C24.277266,6.77514172 24.2464229,6.78066081 24.2163706,6.79169901 C23.9973052,6.87054325 23.8865863,6.99432872 23.8865863,7.15753631 L23.8865863,9.93916131 L21.9964556,9.93916131 L21.9964556,0.417930159 L22.9699915,0.417930159 C23.2199,0.417930159 23.4373837,0.507812599 23.6169065,0.686789038 C23.7956386,0.865765476 23.8865863,1.07312584 23.8865863,1.30413948 L23.8865863,5.28971612 C23.8865863,5.30390809 23.8952856,5.31652316 23.9087301,5.32125382 C23.9126843,5.3228307 23.9166386,5.3228307 23.9205928,5.3228307 C23.930083,5.3228307 23.9395732,5.31967693 23.9459,5.31179251 L26.3121222,2.59166602 L28.5684163,2.59166602 L25.9641484,5.37881012 C25.9546582,5.38905987 25.9530765,5.40561716 25.9601941,5.41823224 L28.6142856,9.93916131 L26.3445471,9.93916131 Z" id="Fill-8" fill="#F9D804"></path>
                <path d="M39.042034,9.93916131 C38.7723542,9.93916131 38.5501255,9.85322108 38.3808837,9.68449439 C38.210851,9.51576771 38.1246484,9.29342693 38.1246484,9.02456806 L38.1246484,5.23452515 C38.1246484,4.77959385 37.9838771,4.44292892 37.7062889,4.23241478 C37.4310732,4.02426597 37.1186876,3.91861468 36.7778314,3.91861468 C36.4361843,3.91861468 36.1237987,4.02426597 35.848583,4.23241478 C35.5702039,4.44292892 35.4302235,4.77959385 35.4302235,5.23452515 L35.4302235,9.93916131 L33.5677725,9.93916131 L33.5677725,5.23452515 C33.5677725,4.77959385 33.4270013,4.44292892 33.1494131,4.23241478 C32.8734065,4.02426597 32.5610209,3.91861468 32.2201647,3.91861468 C31.8785176,3.91861468 31.5708771,4.02426597 31.3051516,4.23241478 C31.0370536,4.44292892 30.9002366,4.77959385 30.9002366,5.23452515 L30.9002366,9.93916131 L29.0108967,9.93916131 L29.0108967,5.62401572 C29.0108967,4.37906508 29.3390993,3.53543165 29.9875961,3.11598026 C30.6408379,2.69416354 31.3739556,2.46157302 32.1655961,2.42451622 C32.5879098,2.42451622 33.0086418,2.47103433 33.4151386,2.56328209 C33.8184719,2.65474142 34.1901712,2.8400254 34.5191647,3.11440337 C34.5254915,3.11913403 34.5334,3.12149936 34.5405176,3.12149936 C34.549217,3.12149936 34.5563346,3.11913403 34.5626614,3.11361493 C34.8370863,2.87629375 35.1668706,2.70520174 35.5417333,2.60506954 C35.9205503,2.50336047 36.3175569,2.44343884 36.7232627,2.42451622 C37.5307203,2.42451622 38.2867725,2.63818413 38.968485,3.06000084 C39.6446614,3.47945223 39.9870993,4.34279673 39.9870993,5.62401572 L39.9870993,9.93916131 L39.042034,9.93916131 Z" id="Fill-10" fill="#F9D804"></path>
                <g id="Group-14" transform="translate(40.549020, 2.410569)">
                    <mask id="mask-4" fill="white">
                        <use xlink:href="#path-3"></use>
                    </mask>
                    <g id="Clip-13"></g>
                    <path d="M4.47595033,3.79374086 C4.47120523,3.79374086 4.46566928,3.79531774 4.46092418,3.79768307 C4.20310719,3.92541075 3.83852549,4.04683089 3.37746013,4.15721283 L2.7352902,4.2959787 C2.39364314,4.3905918 2.14373464,4.51595415 1.9918915,4.6673351 C1.85349281,4.88257989 1.78627059,5.09467092 1.78627059,5.30439661 C1.78627059,5.59138967 1.8740549,5.82398019 2.04804183,5.99664909 C2.22202876,6.15197226 2.4743098,6.23002806 2.79855817,6.23002806 C3.32684575,6.23002806 3.74836863,6.07628178 4.0520549,5.77430832 C4.35574118,5.47154641 4.50916601,5.05051814 4.50916601,4.52383857 L4.50916601,3.82685544 C4.50916601,3.81581725 4.50363007,3.80477905 4.49334902,3.79847151 C4.48860392,3.79531774 4.48227712,3.79374086 4.47595033,3.79374086 M2.51859739,7.66814711 C1.85823791,7.66814711 1.2722183,7.48680534 0.777146405,7.13042935 C0.285237908,6.77720713 0.0361202614,6.18114463 0.0361202614,5.36037603 C0.0361202614,4.59400995 0.261512418,4.04052335 0.707551634,3.71489661 C1.1575451,3.38453922 1.74040131,3.16141 2.44030327,3.0518165 L2.44346667,3.0518165 C2.53204183,3.0518165 2.64592418,3.03762454 2.77720523,3.01002905 C2.90295033,2.98243356 3.05242092,2.95956873 3.22166275,2.94064611 C4.05759085,2.8271104 4.48148627,2.57244349 4.48148627,2.18295291 C4.48148627,1.88807543 4.32727059,1.69490703 4.02358431,1.60660147 C3.73334248,1.52302657 3.4612902,1.48045068 3.2177085,1.48045068 C2.95435556,1.48045068 2.71551895,1.51829592 2.50752549,1.59319795 C2.30111373,1.66888843 2.14768889,1.80844274 2.05041438,2.00949557 L0.236996078,2.00949557 C0.316081046,1.4623165 0.573898039,1.00423143 1.00253856,0.647066997 C1.49761046,0.226827166 2.21491111,0.0139477017 3.13387843,0.0139477017 C4.16514641,0.0139477017 4.94887843,0.190558813 5.46372157,0.538261938 C5.99200915,0.901733912 6.25931634,1.41737528 6.25931634,2.07099408 L6.25931634,4.60741348 C6.25931634,5.33987652 6.1248719,5.92017017 5.85993725,6.33173714 C5.59342092,6.7433041 5.27391765,7.04370068 4.90775425,7.22583089 C4.52261046,7.42688371 4.10820523,7.55224606 3.67561046,7.59876417 C3.23827059,7.64449383 2.84917255,7.66814711 2.51859739,7.66814711" id="Fill-12" fill="#F9D804" mask="url(#mask-4)"></path>
                </g>
                <path d="M52.0582333,9.93916131 L50.6979719,7.44847158 C50.4456908,6.99511716 50.2250438,6.77514172 50.0225863,6.77514172 C49.9909523,6.77514172 49.9601092,6.78066081 49.9300569,6.79169901 C49.7117824,6.87054325 49.6010634,6.99432872 49.6010634,7.15753631 L49.6010634,9.93916131 L47.7109327,9.93916131 L47.7109327,0.417930159 L48.6836778,0.417930159 C48.9335863,0.417930159 49.1510699,0.507812599 49.3313837,0.686789038 C49.5093248,0.865765476 49.6010634,1.07312584 49.6010634,1.30413948 L49.6010634,5.28971612 C49.6010634,5.30390809 49.6089719,5.31652316 49.6224163,5.32125382 C49.6263706,5.3228307 49.6303248,5.3228307 49.6342791,5.3228307 C49.6437693,5.3228307 49.6532595,5.31967693 49.6595863,5.31179251 L52.0258085,2.59166602 L54.2821026,2.59166602 L51.6786255,5.37881012 C51.6683444,5.38905987 51.6667627,5.40561716 51.6738804,5.41823224 L54.3287627,9.93916131 L52.0582333,9.93916131 Z" id="Fill-15" fill="#F9D804"></path>
                <g id="Group-19" transform="translate(53.993464, 2.410569)">
                    <mask id="mask-6" fill="white">
                        <use xlink:href="#path-5"></use>
                    </mask>
                    <g id="Clip-18"></g>
                    <path d="M3.55698301,1.56394673 C3.14020523,1.56394673 2.79302222,1.6987704 2.52650588,1.96368706 C2.25998954,2.22939217 2.1160549,2.61178676 2.09707451,3.10140953 C2.09707451,3.1100824 2.10102876,3.11875527 2.10656471,3.12585125 C2.1128915,3.13215879 2.12159085,3.136101 2.13108105,3.136101 L4.98209412,3.136101 C4.99237516,3.136101 5.00107451,3.13215879 5.00740131,3.12506281 C5.0137281,3.11875527 5.0168915,3.10929396 5.01610065,3.09983265 C4.97813987,2.59286415 4.84369542,2.21046955 4.61593072,1.9644755 C4.36760392,1.6987704 4.01172157,1.56394673 3.55698301,1.56394673 M3.52851242,7.66806826 C2.48142745,7.66806826 1.65261699,7.32509579 1.06659739,6.64861216 C0.477414379,5.98868582 0.180054902,5.03072823 0.180054902,3.79918111 C0.180054902,2.6236134 0.468715033,1.69246286 1.0381268,1.03332496 C1.6257281,0.356841328 2.45374771,0.0138688575 3.50083268,0.0138688575 C4.60406797,0.0138688575 5.47083922,0.348168461 6.07663007,1.00651792 C6.66423137,1.68457843 6.9623817,2.64332446 6.9623817,3.85516052 L6.9623817,4.16186464 C6.9623817,4.24622798 6.95368235,4.29589986 6.94498301,4.32349535 L2.13108105,4.32349535 C2.12159085,4.32349535 2.1128915,4.32664912 2.10656471,4.3337451 C2.10102876,4.34005264 2.09707451,4.3487255 2.09707451,4.35818681 C2.1160549,4.93926891 2.25998954,5.37843136 2.52571503,5.6614822 C2.77166928,5.96424411 3.14732288,6.11799039 3.64081307,6.11799039 C3.96268889,6.11799039 4.24106797,6.05097278 4.46804183,5.91851444 C4.52181961,5.90195715 4.57796993,5.86647724 4.62858431,5.81601692 L4.7828,5.66227064 C4.78675425,5.65911687 4.7891268,5.65438622 4.7907085,5.64886712 C4.80178039,5.61575254 4.84527712,5.55267714 4.98921176,5.4422952 C5.10388497,5.35477808 5.27075425,5.30983686 5.48586536,5.30983686 L6.84059085,5.30983686 C6.63496993,6.0588572 6.24745359,6.63836241 5.68990458,7.03258364 C5.12128366,7.45440036 4.39370196,7.66806826 3.52851242,7.66806826" id="Fill-17" fill="#F9D804" mask="url(#mask-6)"></path>
                </g>
                <g id="Group-22" transform="translate(61.542484, 2.410569)">
                    <mask id="mask-8" fill="white">
                        <use xlink:href="#path-7"></use>
                    </mask>
                    <g id="Clip-21"></g>
                    <path d="M0.0394777778,7.54601737 L0.0394777778,3.98383433 C0.0394777778,3.26714014 0.147033333,2.65767412 0.358190196,2.17120512 C0.568556209,1.686313 0.861170588,1.29209177 1.22891569,0.999579621 C1.57688954,0.725201645 1.99208562,0.520995048 2.46105948,0.392478927 C2.93161503,0.263962806 3.42273268,0.198522082 3.92017712,0.198522082 L4.16613137,0.198522082 L4.16613137,2.11049505 L3.55638627,2.11049505 C3.0091183,2.11049505 2.59708562,2.24531871 2.33056928,2.51023538 C2.06405294,2.77594048 1.9296085,3.19696876 1.9296085,3.76070512 L1.9296085,7.54601737 L0.0394777778,7.54601737 Z" id="Fill-20" fill="#F9D804" mask="url(#mask-8)"></path>
                </g>
            </g>
        </g>
    </g>
</svg>