<?xml version="1.0" encoding="UTF-8"?>
<svg width="36px" height="80px" viewBox="0 0 36 80" version="1.1" xmlns="http://www.w3.org/2000/svg" xmlns:xlink="http://www.w3.org/1999/xlink">
    <!-- Generator: Sketch 46.2 (44496) - http://www.bohemiancoding.com/sketch -->
    <title>neds-back-odds-table-logo-foreground</title>
    <desc>Created with Sketch.</desc>
    <defs></defs>
    <g id="neds" stroke="none" stroke-width="1" fill="none" fill-rule="evenodd">
        <g id="neds-back-odds-table-logo-foreground" fill="#FFFFFF">
            <g id="neds-light-on-dark" transform="translate(16.223633, 39.295875) rotate(-90.000000) translate(-16.223633, -39.295875) translate(-11.000000, 30.000000)">
                <g id="lightondark">
                    <path d="M12.0399696,19 L10.2191637,19 C9.69644436,19 9.27826887,18.8296984 8.94721326,18.4890953 C8.61615766,18.1484922 8.45062986,17.7182567 8.45062986,17.1804623 L8.45062986,9.92023805 C8.45062986,9.06873027 8.19798216,8.44130348 7.70139876,8.04692093 C7.19610336,7.65253838 6.63853603,7.4553471 6.01127279,7.4553471 C5.38400954,7.4553471 4.8351542,7.65253838 4.34728278,8.04692093 C3.85941137,8.44130348 3.62418765,9.05976703 3.62418765,9.92023805 L3.62418765,19 L0,19 L0,10.664187 C0,8.2441122 0.609839268,6.62176579 1.84694178,5.80611097 C3.07533231,4.99045615 4.43440268,4.54229415 5.92415289,4.47058824 C7.44875106,4.47058824 8.85138138,4.88289727 10.1320438,5.69855209 C11.4127063,6.51420692 12.0486815,8.17240629 12.0486815,10.664187 L12.0486815,19 L12.0399696,19 Z" id="Shape" fill-rule="nonzero"></path>
                    <path d="M23.3891467,14.4386453 L26.0719664,14.4386453 C25.6758454,15.9091979 24.9286171,17.0275223 23.8212787,17.7936185 C22.7139404,18.5949376 21.318514,19 19.6349996,19 C17.6003779,19 16.006891,18.3571836 14.8635416,17.0627451 C13.7201923,15.8035294 13.1440162,13.9983601 13.1440162,11.6560428 C13.1440162,9.41939394 13.7021868,7.66705882 14.8095251,6.40784314 C15.9528745,5.11340463 17.5463614,4.47058824 19.5809831,4.47058824 C21.7236378,4.47058824 23.3891467,5.09579323 24.568507,6.36381462 C25.7118564,7.65825312 26.2880325,9.46342246 26.2880325,11.7705169 C26.2880325,11.9114082 26.2880325,12.0346881 26.2880325,12.1403565 C26.2880325,12.246025 26.2880325,12.3164706 26.2880325,12.3516934 C26.2880325,12.5278075 26.270027,12.6510873 26.2340159,12.721533 L16.9521798,12.721533 C16.9881908,13.8046346 17.2582734,14.6059537 17.7534247,15.1342959 C18.2215677,15.697861 18.9147795,15.9708378 19.8420629,15.9708378 C20.4452472,15.9708378 20.9674067,15.8475579 21.3995387,15.6009982 C21.6696213,15.4336898 21.750646,15.3456328 21.8856873,15.2135472 C22.0297313,15.0374332 22.1737753,14.8789305 22.3988441,14.7116221 C22.6329156,14.5267023 22.9570146,14.4386453 23.3891467,14.4386453 Z M16.9521798,10.3439929 L22.4258523,10.3439929 C22.3538303,9.40178253 22.1017533,8.6973262 21.678624,8.24823529 C21.210481,7.75511586 20.5532802,7.51736185 19.6980188,7.51736185 C18.9147795,7.51736185 18.2665815,7.76392157 17.7624274,8.24823529 C17.2582734,8.74135472 16.9881908,9.43700535 16.9521798,10.3439929 Z" id="Shape" fill-rule="nonzero"></path>
                    <path d="M36.9434542,0 L38.7354188,0 C39.2297538,0 39.6446422,0.191275168 39.9977387,0.573825503 C40.3508351,0.956375839 40.5273834,1.37535954 40.5273834,1.84899329 L40.5273834,12.4328859 C40.5273834,15.0014382 39.812363,16.7411314 38.3734949,17.6428571 C36.9346267,18.5445829 35.3721749,19 33.6949666,19 C32.7857432,19 31.8853472,18.8451582 31.0114334,18.5354746 C30.1375196,18.225791 29.4313267,17.7339406 28.9105094,17.0417066 C27.895357,15.7027804 27.3833671,13.8720038 27.3833671,11.5584851 C27.3833671,9.28139981 27.895357,7.4506232 28.9105094,6.07526366 C29.9609714,4.66347076 31.3115654,3.96212848 32.9622914,3.96212848 C33.8362052,3.96212848 34.6130174,4.1442953 35.2750733,4.50862895 C35.9724389,4.94582934 36.5373932,5.50143816 36.961109,6.1936721 L36.961109,5.25839093e-16 L36.9434542,0 Z M30.9496415,11.394535 C30.9496415,12.8427613 31.2144639,13.9448706 31.7352812,14.7008629 C32.2649259,15.4568552 33.0152559,15.8394056 33.9950986,15.8394056 C34.9396317,15.8394056 35.6811343,15.4568552 36.2019516,14.7008629 C36.6962866,13.9448706 36.9346267,12.8336529 36.9346267,11.394535 C36.9346267,10.0920422 36.6698044,9.06279962 36.1489871,8.29769895 C35.5840327,7.57813998 34.8337027,7.21380633 33.8891697,7.21380633 C32.9799462,7.21380633 32.2560985,7.59635666 31.7352812,8.35234899 C31.2144639,9.0810163 30.9496415,10.0920422 30.9496415,11.394535 Z" id="Shape" fill-rule="nonzero"></path>
                    <path d="M52.7114667,11.7617112 C52.0259181,11.1629234 50.8262081,10.6433868 49.0866285,10.1854902 C48.9580881,10.1590731 48.3668024,10.0357932 48.1182911,9.9741533 C46.3444341,9.58670232 45.4617902,9.12 45.4617902,8.55643494 C45.4617902,8.13376114 45.6160387,7.8255615 45.9245355,7.6142246 C46.2673098,7.4028877 46.7729019,7.29721925 47.4584505,7.29721925 C48.1697072,7.29721925 48.7352848,7.45572193 49.146614,7.77272727 C49.3094318,7.89600713 49.4122641,7.97525847 49.6779141,8.38032086 C49.9435642,8.78538324 50.3891708,9.08477718 51.0318726,9.08477718 L53.2256282,9.08477718 C53.1570733,7.68467023 52.6257731,6.5487344 51.640297,5.6769697 C50.5776967,4.87565062 49.1637527,4.47058824 47.398465,4.47058824 C45.7617177,4.47058824 44.4334673,4.87565062 43.4137138,5.6769697 C42.4282377,6.5487344 41.9312149,7.64944742 41.9312149,8.97910873 C41.9312149,10.0269875 42.2739892,10.8723351 42.9509685,11.4975401 C43.5593929,12.1315508 44.7676723,12.6686988 46.5758067,13.1265954 C46.9614278,13.2322638 47.2699247,13.3027094 47.9554733,13.4436007 C49.386556,13.7606061 50.0978127,14.2273084 50.0978127,14.8613191 C50.0978127,15.2839929 49.8921481,15.6098039 49.4808189,15.8563636 C49.0352123,16.1029234 48.5124815,16.2262032 47.8954878,16.2262032 C47.0471214,16.2262032 46.3615728,16.0500891 45.8559807,15.697861 C45.3760967,15.3456328 45.1275853,14.8260963 45.0933079,14.1216399 L41.6227181,14.1216399 L41.6227181,14.2801426 C41.6227181,15.8211408 42.1197408,16.9922995 43.1052169,17.7936185 C44.0564156,18.5949376 45.504637,19 47.4413118,19 C49.4808189,19 51.0147339,18.612549 52.0344875,17.8464528 C53.1227959,17.0099109 53.6712348,15.8211408 53.6712348,14.2801426 C53.6798041,13.2322638 53.3541685,12.3957219 52.7114667,11.7617112 Z" id="Shape" fill-rule="nonzero"></path>
                </g>
            </g>
        </g>
    </g>
</svg>